<svg id="icon_APK" data-name="icon/APK" xmlns="http://www.w3.org/2000/svg" width="120" height="120" viewBox="0 0 120 120">
  <g id="icon_APK-2" data-name="icon/APK">
    <g id="icon_APK-3" data-name="icon/APK">
      <rect id="Light_图标_下载_上传图片" data-name="Light / 图标 / 下载 / 上传图片" width="120" height="120" rx="30" fill="#63c421"/>
      <path id="形状结合" d="M26.557,50.048v-6.57H20.11v6.57a3.225,3.225,0,1,1-6.448,0v-6.57a4.889,4.889,0,0,1-4.836-4.927V20.483H37.841V38.551a4.888,4.888,0,0,1-4.836,4.927v6.57a3.225,3.225,0,1,1-6.448,0Zm13.661-13.14V23.768a3.225,3.225,0,1,1,6.449,0v13.14a3.225,3.225,0,1,1-6.449,0ZM0,36.908V23.768a3.258,3.258,0,0,1,3.224-3.285,3.259,3.259,0,0,1,3.225,3.285v13.14a3.259,3.259,0,0,1-3.225,3.285A3.259,3.259,0,0,1,0,36.908ZM37.84,18.068H8.915V16.425a14.813,14.813,0,0,1,6.53-10.76L13.832,2.378a1.66,1.66,0,0,1,.721-2.2A1.573,1.573,0,0,1,15.273,0a1.6,1.6,0,0,1,1.443.908l1.619,3.3.42-.17a14.306,14.306,0,0,1,9.157,0l.42.17,1.619-3.3A1.6,1.6,0,0,1,31.394,0a1.576,1.576,0,0,1,.72.174,1.66,1.66,0,0,1,.721,2.2L31.221,5.665a14.813,14.813,0,0,1,6.53,10.76h.09v1.642h0ZM28.166,9.855a1.613,1.613,0,1,0,.008,0h-.008ZM16.885,11.5A1.613,1.613,0,1,0,18.5,9.855h-.008A1.63,1.63,0,0,0,16.885,11.5Z" transform="translate(36 33.333)" fill="#fff"/>
    </g>
  </g>
</svg>
