<?xml version="1.0" encoding="UTF-8"?>
<svg width="250px" height="157px" viewBox="0 0 250 157" version="1.1" xmlns="http://www.w3.org/2000/svg" xmlns:xlink="http://www.w3.org/1999/xlink">
    <title>Illustration/无下载</title>
    <defs>
        <linearGradient x1="50%" y1="100%" x2="50%" y2="0%" id="linearGradient-1">
            <stop stop-color="#F5F7FA" stop-opacity="0" offset="0%"></stop>
            <stop stop-color="#D9DEE4" offset="100%"></stop>
        </linearGradient>
        <linearGradient x1="50%" y1="50%" x2="50%" y2="0%" id="linearGradient-2">
            <stop stop-color="#F5F7FA" stop-opacity="0" offset="0%"></stop>
            <stop stop-color="#D9DEE4" offset="100%"></stop>
        </linearGradient>
        <linearGradient x1="50%" y1="50%" x2="50%" y2="0%" id="linearGradient-3">
            <stop stop-color="#F5F7FA" stop-opacity="0" offset="0%"></stop>
            <stop stop-color="#D9DEE4" offset="100%"></stop>
        </linearGradient>
        <linearGradient x1="70.998387%" y1="56.749425%" x2="0%" y2="56.749425%" id="linearGradient-4">
            <stop stop-color="#D9DEE4" offset="0%"></stop>
            <stop stop-color="#F5F7FA" offset="100%"></stop>
        </linearGradient>
        <filter x="-13.8%" y="-41.6%" width="127.5%" height="183.1%" filterUnits="objectBoundingBox" id="filter-5">
            <feGaussianBlur stdDeviation="0.654999971" in="SourceGraphic"></feGaussianBlur>
        </filter>
        <linearGradient x1="70.998387%" y1="56.749425%" x2="0%" y2="56.749425%" id="linearGradient-6">
            <stop stop-color="#D9DEE4" offset="0%"></stop>
            <stop stop-color="#F5F7FA" offset="100%"></stop>
        </linearGradient>
        <filter x="-13.8%" y="-41.6%" width="127.5%" height="183.1%" filterUnits="objectBoundingBox" id="filter-7">
            <feGaussianBlur stdDeviation="0.445399985" in="SourceGraphic"></feGaussianBlur>
        </filter>
        <filter x="-13.8%" y="-41.6%" width="127.5%" height="183.1%" filterUnits="objectBoundingBox" id="filter-8">
            <feGaussianBlur stdDeviation="0.445399985" in="SourceGraphic"></feGaussianBlur>
        </filter>
        <linearGradient x1="84.2129629%" y1="0%" x2="0.060977795%" y2="100%" id="linearGradient-9">
            <stop stop-color="#CED3D9" offset="0%"></stop>
            <stop stop-color="#F5F7FA" offset="100%"></stop>
        </linearGradient>
        <filter x="-13.6%" y="-150.0%" width="127.3%" height="400.0%" filterUnits="objectBoundingBox" id="filter-10">
            <feGaussianBlur stdDeviation="2" in="SourceGraphic"></feGaussianBlur>
        </filter>
        <linearGradient x1="17.4817898%" y1="0%" x2="48.5107905%" y2="50%" id="linearGradient-11">
            <stop stop-color="#BEBEBE" offset="0%"></stop>
            <stop stop-color="#E3E3E3" offset="100%"></stop>
        </linearGradient>
        <linearGradient x1="50%" y1="100%" x2="50%" y2="0%" id="linearGradient-12">
            <stop stop-color="#BEBEBE" offset="0%"></stop>
            <stop stop-color="#E3E3E3" offset="100%"></stop>
        </linearGradient>
        <linearGradient x1="50%" y1="65.2392904%" x2="50%" y2="-27.1732481%" id="linearGradient-13">
            <stop stop-color="#D9DEE4" offset="0%"></stop>
            <stop stop-color="#F5F7FA" offset="100%"></stop>
        </linearGradient>
        <linearGradient x1="2.84217094e-12%" y1="90.1902497%" x2="92.3250159%" y2="18.2941149%" id="linearGradient-14">
            <stop stop-color="#D9DEE4" offset="0%"></stop>
            <stop stop-color="#F5F7FA" offset="100%"></stop>
        </linearGradient>
        <linearGradient x1="50%" y1="100%" x2="50%" y2="0%" id="linearGradient-15">
            <stop stop-color="#D9DEE4" offset="0%"></stop>
            <stop stop-color="#F5F7FA" stop-opacity="0" offset="100%"></stop>
        </linearGradient>
        <linearGradient x1="76.2239927%" y1="100%" x2="21.3062442%" y2="0%" id="linearGradient-16">
            <stop stop-color="#D9DEE4" offset="0%"></stop>
            <stop stop-color="#F5F7FA" offset="100%"></stop>
        </linearGradient>
        <linearGradient x1="83.1669755%" y1="58.1985816%" x2="0%" y2="2.95189788%" id="linearGradient-17">
            <stop stop-color="#D9DEE4" offset="0%"></stop>
            <stop stop-color="#F5F7FA" offset="100%"></stop>
        </linearGradient>
        <polygon id="path-18" points="0 39.4701309 30.712499 45.6126307 38.0834988 32.1003597 7.37099976 28.4136313"></polygon>
        <filter x="-70.9%" y="-122.1%" width="241.8%" height="414.0%" filterUnits="objectBoundingBox" id="filter-19">
            <feOffset dx="0" dy="6" in="SourceAlpha" result="shadowOffsetOuter1"></feOffset>
            <feGaussianBlur stdDeviation="8" in="shadowOffsetOuter1" result="shadowBlurOuter1"></feGaussianBlur>
            <feColorMatrix values="0 0 0 0 0   0 0 0 0 0   0 0 0 0 0  0 0 0 0.0587030157 0" type="matrix" in="shadowBlurOuter1"></feColorMatrix>
        </filter>
        <linearGradient x1="31.9982857%" y1="17.9718464%" x2="68.0017143%" y2="80.6663655%" id="linearGradient-20">
            <stop stop-color="#D9DEE4" offset="0%"></stop>
            <stop stop-color="#F5F7FA" offset="100%"></stop>
        </linearGradient>
        <linearGradient x1="83.1669755%" y1="63.1249883%" x2="0%" y2="-25.3186119%" id="linearGradient-21">
            <stop stop-color="#D9DEE4" offset="0%"></stop>
            <stop stop-color="#F5F7FA" offset="100%"></stop>
        </linearGradient>
        <polygon id="path-22" points="38.0830074 32.0998683 46.6825071 45.6133678 72.4822347 38.2411396 63.882735 25.9573685"></polygon>
        <filter x="-78.5%" y="-106.8%" width="257.0%" height="374.7%" filterUnits="objectBoundingBox" id="filter-23">
            <feOffset dx="0" dy="6" in="SourceAlpha" result="shadowOffsetOuter1"></feOffset>
            <feGaussianBlur stdDeviation="8" in="shadowOffsetOuter1" result="shadowBlurOuter1"></feGaussianBlur>
            <feColorMatrix values="0 0 0 0 0   0 0 0 0 0   0 0 0 0 0  0 0 0 0.0587030157 0" type="matrix" in="shadowBlurOuter1"></feColorMatrix>
        </filter>
        <linearGradient x1="50%" y1="0%" x2="50%" y2="100%" id="linearGradient-24">
            <stop stop-color="#5186F0" offset="0%"></stop>
            <stop stop-color="#515FF0" offset="100%"></stop>
        </linearGradient>
        <linearGradient x1="100%" y1="60.4489796%" x2="-7.10542736e-13%" y2="46.2357067%" id="linearGradient-25">
            <stop stop-color="#D9DEE4" offset="0%"></stop>
            <stop stop-color="#F5F7FA" offset="100%"></stop>
        </linearGradient>
        <linearGradient x1="50%" y1="0%" x2="50%" y2="100%" id="linearGradient-26">
            <stop stop-color="#5186F0" offset="0%"></stop>
            <stop stop-color="#515FF0" offset="100%"></stop>
        </linearGradient>
    </defs>
    <g id="Illustration/无下载" stroke="none" stroke-width="1" fill="none" fill-rule="evenodd">
        <g id="编组-7">
            <path d="M249.960386,156.004844 C228.181855,108.766797 180.410001,75.9799967 124.980379,75.9799967 C69.5504419,75.9799967 21.7783595,108.76717 4.26325641e-13,156.00565" id="路径" fill="url(#linearGradient-1)"></path>
            <path d="M59.9046433,20.3049991 C63.9814796,20.3049991 67.6250742,22.1525793 70.0374893,25.0529631 C70.5667096,24.9535772 71.1134044,24.9014901 71.6723132,24.9014901 C76.5147834,24.9014901 80.440381,28.8115365 80.440381,33.6348231 C80.440381,38.4581097 76.5147834,42.368156 71.6723132,42.368156 C70.9940543,42.368156 70.3337826,42.2914483 69.6997656,42.1462675 C67.292485,44.8217829 63.7959139,46.504998 59.9046433,46.504998 C56.0521641,46.504998 52.5865544,44.855175 50.1811317,42.2261795 C49.6682825,42.3194202 49.1390806,42.368156 48.5984506,42.368156 C43.7559805,42.368156 39.8303828,38.4581097 39.8303828,33.6348231 C39.8303828,28.8115365 43.7559805,24.9014901 48.5984506,24.9014901 C49.0153109,24.9014901 49.4253768,24.9304655 49.8267288,24.9865045 C52.2402622,22.12428 55.8591498,20.3049991 59.9046433,20.3049991 Z" id="形状结合" fill="url(#linearGradient-2)"></path>
            <path d="M184.618871,0 C189.813667,0 194.456405,2.35577181 197.530287,6.05390611 C198.204705,5.92690862 198.901154,5.86052606 199.61316,5.86052606 C205.783404,5.86052606 210.785375,10.8458352 210.785375,16.9955256 C210.785375,23.145216 205.783404,28.1305251 199.61316,28.1305251 C198.749148,28.1305251 197.908043,28.0327727 197.100372,27.8477592 C194.032473,31.2588694 189.577137,33.4049985 184.618871,33.4049985 C179.710396,33.4049985 175.294801,31.3017564 172.229852,27.9501793 C171.575543,28.0684075 170.901346,28.1305251 170.212593,28.1305251 C164.042349,28.1305251 159.040378,23.145216 159.040378,16.9955256 C159.040378,10.8458352 164.042349,5.86052606 170.212593,5.86052606 C170.744171,5.86052606 171.267077,5.89752766 171.778861,5.96908766 C174.85263,2.31975205 179.463941,0 184.618871,0 Z" id="形状结合备份" fill="url(#linearGradient-3)"></path>
            <g id="编组-6" transform="translate(57.515382, 71.394997)">
                <polygon id="Fill-3" fill="#C2C6CC" points="10.4799995 34.0599985 13.0999994 34.0599985 13.0999994 13.0999994 10.4799995 13.0999994"></polygon>
                <path d="M19.6499991,18.363055 C19.6499991,24.5917615 16.1308991,26.1999989 11.789898,26.1999989 C7.44889695,26.1999989 3.92999983,24.5917615 3.92999983,18.363055 C3.92999983,12.1343485 7.44889695,0 11.789898,0 C16.1308991,0 19.6499991,12.1343485 19.6499991,18.363055" id="Fill-1" fill="url(#linearGradient-4)"></path>
                <polygon id="路径-20" fill="#C2C6CC" filter="url(#filter-5)" points="14.2791425 33.4049985 1.48325796e-13 38.1336143 11.6591426 33.4049985"></polygon>
            </g>
            <g id="编组-5" transform="translate(39.175383, 96.939996)">
                <polygon id="Fill-3" fill="#C2C6CB" points="7.12639976 23.1607992 8.9079997 23.1607992 8.9079997 8.9079997 7.12639976 8.9079997"></polygon>
                <path d="M13.3619996,12.4868775 C13.3619996,16.722398 10.9690115,17.8159994 8.01713075,17.8159994 C5.06524998,17.8159994 2.67239991,16.722398 2.67239991,12.4868775 C2.67239991,8.25135708 5.06524998,5.5067062e-14 8.01713075,5.5067062e-14 C10.9690115,5.5067062e-14 13.3619996,8.25135708 13.3619996,12.4868775" id="Fill-1" fill="url(#linearGradient-6)"></path>
                <polygon id="路径-20" fill="#C2C6CB" filter="url(#filter-7)" points="9.70981702 22.7153992 -3.66817687e-13 25.930858 7.92821708 22.7153992"></polygon>
            </g>
            <g id="编组-3" transform="translate(186.930385, 97.500000) scale(-1, 1) translate(-186.930385, -97.500000) translate(179.930385, 82.500000)">
                <polygon id="Fill-3" fill="#C2C6CB" points="7.55859088 26.4657955 9.34019082 26.4657955 9.34019082 12.212996 7.55859088 12.212996"></polygon>
                <path d="M13.6895996,12.4868775 C13.6895996,16.722398 11.2966116,17.8159994 8.34473084,17.8159994 C5.39285007,17.8159994 3,16.722398 3,12.4868775 C3,8.25135708 5.39285007,5.86197757e-14 8.34473084,5.86197757e-14 C11.2966116,5.86197757e-14 13.6895996,8.25135708 13.6895996,12.4868775" id="Fill-1" fill="url(#linearGradient-6)"></path>
                <polygon id="路径-20" fill="#C2C6CB" filter="url(#filter-8)" points="9.70981702 26.5 9.05941988e-14 29.7154587 7.92821708 26.5"></polygon>
            </g>
        </g>
        <path d="M186.831759,36 L186.631179,36.7825298 C185.493556,41.2207843 182.928831,45.1621554 179.331759,48 L179.331759,48 L179.331759,48" id="路径-28" stroke="#EFEFEF" stroke-width="0.5" stroke-linecap="round"></path>
        <path d="M186.831759,47 L186.432879,47.8575847 C184.520021,51.9701915 181.327121,55.3529919 177.331759,57.5 L177.331759,57.5 L177.331759,57.5" id="路径-28备份" stroke="#EFEFEF" stroke-width="0.5" stroke-linecap="round"></path>
        <path d="M172.835102,54.6010418 C172.782718,54.5325396 172.702127,54.4962737 172.617507,54.5003032 C172.532886,54.5043328 172.456325,54.5526873 172.41603,54.625219 C171.682653,55.9106427 170.731681,56.3538922 169.893537,56.7447577 C169.345519,56.9986189 168.829738,57.2403913 168.442902,57.6796113 C168.011741,58.1671858 167.810264,58.8280306 167.810264,59.7548251 C167.810264,60.1094248 167.838471,60.5043198 167.898914,60.9435398 C166.79482,61.2094895 165.831759,61.056367 165.831759,61.056367 L165.831759,62.0637523 C167.064799,62.0637523 168.092332,61.7736253 168.837797,61.4593211 C169.325372,61.2739622 169.760562,61.0241306 170.139339,60.7420627 C170.183664,60.7098264 170.207841,60.6896787 170.207841,60.6896787 C172.041282,59.2753097 172.633625,57.0227961 172.633625,57.0227961 C172.633625,59.4284323 170.880775,61.5197642 168.64035,62.2652294 C169.329401,62.4828246 169.970098,62.5835631 170.546323,62.5553563 C171.195079,62.52312 171.771303,62.3377611 172.258878,62.0033092 C173.29447,61.2860508 173.886843,59.8998886 173.886843,58.1953926 C173.890842,56.8172895 173.495947,55.4714227 172.835102,54.6010418 Z" id="路径" fill="url(#linearGradient-9)" transform="translate(169.859301, 58.530000) scale(-1, 1) rotate(-264.000000) translate(-169.859301, -58.530000) "></path>
        <ellipse id="椭圆形" fill="#B5BDC7" style="mix-blend-mode: multiply;" opacity="0.300000012" filter="url(#filter-10)" cx="125.180385" cy="92" rx="22" ry="2"></ellipse>
        <g id="编组-4" transform="translate(89.930385, 15.500000)">
            <g id="编组">
                <polygon id="Fill-1" fill="url(#linearGradient-11)" points="33.1694989 23.5001228 33.1694989 61.5836216 63.8819979 61.5836216 63.8819979 25.9571228"></polygon>
                <polygon id="Fill-2" fill="url(#linearGradient-12)" points="33.1694989 23.5001228 7.37099976 28.4141227 7.37099976 62.8121216 33.1694989 61.5836216"></polygon>
                <circle id="椭圆形备份" fill="url(#linearGradient-13)" cx="57.5" cy="15" r="1.5"></circle>
                <circle id="椭圆形" fill="#C2C6CB" cx="43" cy="29" r="1.5"></circle>
                <path d="M13.5,11 C12.1192881,11 11,12.1192881 11,13.5 C11,14.8807119 12.1192881,16 13.5,16 C14.8807119,16 16,14.8807119 16,13.5 C16,12.1192881 14.8807119,11 13.5,11 Z M13.5,12 C14.3284271,12 15,12.6715729 15,13.5 C15,14.3284271 14.3284271,15 13.5,15 C12.6715729,15 12,14.3284271 12,13.5 C12,12.6715729 12.6715729,12 13.5,12 Z" id="椭圆形" fill="url(#linearGradient-13)"></path>
                <path d="M56.0012853,28.5199999 C56.0989426,27.290871 56.3901391,26.1294894 56.8366996,24.9654683 C57.2850356,23.8102455 57.8851845,22.6708597 58.6673312,21.6212171 C59.4450388,20.5768535 60.363018,19.5641639 61.4354734,18.7248017 C62.4901728,17.8414478 63.6789292,17.1402197 64.9236166,16.4953009 L65.0692149,16.4196352 C66.884754,15.4782122 69.1264342,16.1741613 70.076374,17.973423 C71.0263138,19.7726847 70.3249564,21.9933871 68.5094173,22.9348101 C67.9794042,23.2101983 67.3943478,23.344813 66.8350375,23.3536114 C65.9392532,23.3650492 65.0017425,23.4020023 64.1006315,23.6131625 C63.1737743,23.7847303 62.286868,24.1261061 61.4008494,24.5607444 C60.513943,24.9980221 59.6785287,25.589271 58.9017088,26.2931386 C58.1293279,26.9899676 57.4075512,27.8381281 56.8615578,28.7381989 L56.8331484,28.7848301 C56.705306,28.9951106 56.4300898,29.0628578 56.217907,28.9361616 C56.066982,28.8464185 55.9888561,28.6827693 56.0012853,28.5199999" id="Fill-1" fill="url(#linearGradient-14)" transform="translate(63.250000, 22.500000) rotate(15.000000) translate(-63.250000, -22.500000) "></path>
                <polygon id="路径-32" fill="url(#linearGradient-15)" points="12.6182375 48.5000004 0 0 70 0 58.4863824 48.5000004"></polygon>
                <polygon id="Fill-3" fill="url(#linearGradient-16)" points="7.37136831 62.8115073 38.0826388 68.9540071 38.0826388 32.1002368 7.37136831 28.4135084"></polygon>
                <g id="Fill-4">
                    <use fill="black" fill-opacity="1" filter="url(#filter-19)" xlink:href="#path-18"></use>
                    <use fill="url(#linearGradient-17)" fill-rule="evenodd" xlink:href="#path-18"></use>
                </g>
                <polygon id="Fill-5" fill="url(#linearGradient-20)" points="38.0830074 32.0998683 38.0830074 68.9548671 63.882735 61.5826388 63.882735 25.9573685"></polygon>
                <g id="Fill-6">
                    <use fill="black" fill-opacity="1" filter="url(#filter-23)" xlink:href="#path-22"></use>
                    <use fill="url(#linearGradient-21)" fill-rule="evenodd" xlink:href="#path-22"></use>
                </g>
            </g>
            <g id="编组" transform="translate(27.500000, 58.000000)" fill="url(#linearGradient-24)">
                <path d="M6.35210998,6.10035648 L8.79710997,6.59017148 L8.79710997,9.15090147 L6.35210998,8.66271647 L6.35210998,6.10035648 Z M3.20172749,5.49081798 L5.64672748,5.98063298 L5.64672748,8.54136298 L3.20172749,8.05317798 L3.20172749,5.49081798 Z M0,4.81314549 L2.44499999,5.30214548 L2.44499999,7.86287548 L0,7.37469048 L0,4.81314549 Z M6.35210998,3.05054499 L8.79710997,3.53954499 L8.79710997,6.10027498 L6.35210998,5.61208998 L6.35210998,3.05054499 Z M3.20148299,2.43986549 L5.64648298,2.92968049 L5.64648298,5.49122548 L3.20148299,5.00222549 L3.20148299,2.43986549 Z M6.35210998,8.14999977e-05 L8.79710997,0.488266499 L8.79710997,3.05062649 L6.35210998,2.56162649 L6.35210998,8.14999977e-05 Z" id="形状结合"></path>
            </g>
        </g>
        <path d="M95.8963537,33.6085329 C96.3313057,33.6456607 96.5991031,33.7063329 96.9299117,33.7670052 C97.2414669,33.8303941 97.5503966,33.8955941 97.8523251,33.9725663 C98.4596827,34.1201719 99.0521626,34.293133 99.6376413,34.4878275 C100.807724,34.8744998 101.945425,35.3535388 103.031492,35.9249444 C104.116685,36.5081223 105.141491,37.2108335 106.063904,38.0095337 C106.981942,38.8254394 107.755579,39.7871395 108.362937,40.7977397 C108.493335,41.013262 108.428573,41.2967009 108.221162,41.4307232 C108.068885,41.5285232 107.882477,41.5194676 107.742452,41.4243843 L107.713572,41.404462 C106.826165,40.7995508 105.905501,40.3503952 104.940205,40.0624285 C103.967033,39.7889506 102.987735,39.6341006 101.999685,39.5842951 C101.006384,39.5462617 100.018334,39.5924451 99.043411,39.7165062 C98.5568249,39.7771784 98.071989,39.8577729 97.6002804,39.9591951 C97.3622383,40.0053785 97.1320725,40.0642396 96.9027819,40.1212896 C96.6936199,40.1810563 96.4214467,40.2471618 96.3164281,40.3123619 C94.6396311,41.3628065 92.4587448,40.8077008 91.443565,39.0726561 C90.4292603,37.3385169 90.9648552,35.0809665 92.6416522,34.0314274 C93.30677,33.6148718 94.0506517,33.4509662 94.7700292,33.512544 L95.8963537,33.6085329 Z" id="Fill-3" fill="url(#linearGradient-25)" transform="translate(99.680385, 37.500000) rotate(18.000000) translate(-99.680385, -37.500000) "></path>
        <circle id="椭圆形" fill="url(#linearGradient-13)" cx="112.430385" cy="38" r="4.5"></circle>
        <path d="M93.4303851,41.5 C93.7065275,41.5 93.9303851,41.7238576 93.9303851,42 L93.9303851,43 L94.9303851,43 C95.2065275,43 95.4303851,43.2238576 95.4303851,43.5 C95.4303851,43.7761424 95.2065275,44 94.9303851,44 L93.9303851,44 L93.9303851,45 C93.9303851,45.2761424 93.7065275,45.5 93.4303851,45.5 C93.1542427,45.5 92.9303851,45.2761424 92.9303851,45 L92.9303851,44 L91.9303851,44 C91.6542427,44 91.4303851,43.7761424 91.4303851,43.5 C91.4303851,43.2238576 91.6542427,43 91.9303851,43 L92.9303851,43 L92.9303851,42 C92.9303851,41.7238576 93.1542427,41.5 93.4303851,41.5 Z" id="形状结合" fill="url(#linearGradient-13)"></path>
        <path d="M160.430385,40.5 C160.706527,40.5 160.930385,40.7238576 160.930385,41 L160.930385,42 L161.930385,42 C162.206527,42 162.430385,42.2238576 162.430385,42.5 C162.430385,42.7761424 162.206527,43 161.930385,43 L160.930385,43 L160.930385,44 C160.930385,44.2761424 160.706527,44.5 160.430385,44.5 C160.154243,44.5 159.930385,44.2761424 159.930385,44 L159.930385,43 L158.930385,43 C158.654243,43 158.430385,42.7761424 158.430385,42.5 C158.430385,42.2238576 158.654243,42 158.930385,42 L159.930385,42 L159.930385,41 C159.930385,40.7238576 160.154243,40.5 160.430385,40.5 Z" id="形状结合备份-2" fill="url(#linearGradient-13)" transform="translate(160.430385, 42.500000) rotate(-45.000000) translate(-160.430385, -42.500000) "></path>
        <path d="M127.699196,2.15966838 C127.085803,1.28011054 125.774968,1.28011054 125.16196,2.15966838 L111.706624,21.4602482 C110.999545,22.4743581 111.731684,23.8584863 112.975435,23.8584863 L120.64729,23.8584863 L120.64729,42.970999 C120.64729,43.8153898 121.337791,44.5 122.189449,44.5 L130.671322,44.5 C131.522979,44.5 132.21348,43.8153898 132.21348,42.970999 L132.21348,23.8584863 L139.885335,23.8584863 C141.129086,23.8584863 141.861226,22.4743581 141.154146,21.4602482 L127.699196,2.15966838 Z" id="Fill-1" fill="url(#linearGradient-26)" transform="translate(126.430385, 23.000000) scale(1, -1) translate(-126.430385, -23.000000) "></path>
    </g>
</svg>