<svg id="Excel" xmlns="http://www.w3.org/2000/svg" width="120" height="120" viewBox="0 0 120 120">
  <g id="Excel-2" data-name="Excel">
    <g id="Excel-3" data-name="Excel">
      <rect id="矩形" width="120" height="120" rx="30" fill="#63c421"/>
      <path id="形状结合" d="M30.4,48.973,19.043,32.748,7.682,48.973A4.152,4.152,0,0,1,1.9,49.991L1.77,49.9a4.152,4.152,0,0,1-1.02-5.782L13.878,25.371.751,6.624A4.152,4.152,0,0,1,1.77.842L1.9.751A4.152,4.152,0,0,1,7.682,1.77L19.043,17.995,30.4,1.77A4.152,4.152,0,0,1,36.185.751l.131.092a4.152,4.152,0,0,1,1.02,5.782L24.208,25.371,37.336,44.119a4.152,4.152,0,0,1-1.02,5.782l-.131.091A4.151,4.151,0,0,1,30.4,48.973Z" transform="translate(40.572 33.859)" fill="#fff"/>
    </g>
  </g>
</svg>
