<svg id="icon_PDF" data-name="icon/PDF" xmlns="http://www.w3.org/2000/svg" width="120" height="120" viewBox="0 0 120 120">
  <g id="icon_PDF-2" data-name="icon/PDF">
    <g id="icon_PDF-3" data-name="icon/PDF">
      <rect id="矩形" width="120" height="120" rx="30" fill="#ff5a5a"/>
      <path id="形状" d="M.023,52.466l0-.028c-.112-1.3.151-3,2.22-5.517,3.659-4.46,11.2-8.093,11.2-8.093.748-1.306.661-1.18,1.548-2.784a142.451,142.451,0,0,0,7.483-15.868c-.131-.419-5-16.178-.54-19.523A3.333,3.333,0,0,1,23.954,0a3.761,3.761,0,0,1,2.558.989c1.542,1.546,2.137,4.209,2.078,8.154a32,32,0,0,1-1.557,10.063S29.427,26.293,38,32.72a54.989,54.989,0,0,1,8.149-.731c3.9,0,6.39.718,7.6,2.194a4.208,4.208,0,0,1,.782,3.5,3.946,3.946,0,0,1-1.58,2.991,5.476,5.476,0,0,1-3.186.826c-3.974,0-9.812-2.45-13.734-4.614a160.617,160.617,0,0,0-18.988,4.48A60.293,60.293,0,0,1,10.8,51.033c-2.449,2.8-4.586,4.222-6.539,4.345-.077,0-.159.006-.237.006C2.105,55.384.2,53.994.023,52.466Z" transform="translate(33.077 32.308)" fill="#fff"/>
    </g>
  </g>
</svg>
