<svg id="icon_Word" data-name="icon/Word" xmlns="http://www.w3.org/2000/svg" width="120" height="120" viewBox="0 0 120 120">
  <g id="icon_Word-2" data-name="icon/Word">
    <g id="icon_Word-3" data-name="icon/Word">
      <rect id="矩形" width="120" height="120" rx="30" fill="#4e99ff"/>
      <path id="形状结合" d="M37.136,48.378a4.232,4.232,0,0,1-4.195-3.135L25.849,18.776l-6.9,25.513a4.178,4.178,0,0,1-4.125,3.087A4.179,4.179,0,0,1,10.7,44.289L.145,5.224a4.159,4.159,0,0,1,8.04-2.135L14.829,27.67,21.473,3.089a4.177,4.177,0,0,1,5.1-2.948,4.129,4.129,0,0,1,1.4.671,4.225,4.225,0,0,1,2.586,2.861l6.574,24.534L43.71,3.673a4.231,4.231,0,0,1,8.173,2.19L41.332,45.243a4.233,4.233,0,0,1-4.084,3.137Z" transform="translate(34.018 35.542)" fill="#f5f5f5"/>
    </g>
  </g>
</svg>
