<svg id="压缩" xmlns="http://www.w3.org/2000/svg" xmlns:xlink="http://www.w3.org/1999/xlink" width="120" height="120" viewBox="0 0 120 120">
  <defs>
    <linearGradient id="linear-gradient" x1="1.088" y1="1.163" x2="0.068" gradientUnits="objectBoundingBox">
      <stop offset="0" stop-color="#fd8802"/>
      <stop offset="1" stop-color="#ffce24"/>
    </linearGradient>
    <linearGradient id="linear-gradient-2" x1="0.732" y1="1" x2="0.265" gradientUnits="objectBoundingBox">
      <stop offset="0" stop-color="#ff406c"/>
      <stop offset="1" stop-color="#ff629f"/>
    </linearGradient>
  </defs>
  <g id="压缩-2" data-name="压缩">
    <g id="文档" transform="translate(21 21)">
      <path id="Rectangle_Copy_6" data-name="Rectangle Copy 6" d="M9,0H66A12,12,0,0,1,78,12V69a9,9,0,0,1-9,9H9a9,9,0,0,1-9-9V9A9,9,0,0,1,9,0Z" fill="url(#linear-gradient)"/>
      <path id="矩形" d="M0,0H29a9,9,0,0,1,9,9V38Z" transform="translate(40)" fill="#ffe135"/>
      <path id="矩形_copy_2" data-name="矩形 copy 2" d="M38,38H9a9,9,0,0,1-9-9V0Z" transform="translate(40 0)" fill="#fb8606"/>
    </g>
    <g id="压缩文件" transform="translate(21.333 21.333)">
      <rect id="Rectangle_7" data-name="Rectangle 7" width="78.667" height="78.667" rx="9" fill="url(#linear-gradient-2)"/>
      <rect id="Rectangle_11_Copy_5" data-name="Rectangle 11 Copy 5" width="13.111" height="13.111" transform="translate(26.222 26.222)" fill="#d40d3a"/>
      <rect id="Rectangle_11_Copy_9" data-name="Rectangle 11 Copy 9" width="13.111" height="13.111" transform="translate(26.222 52.444)" fill="#d40d3a"/>
      <rect id="Rectangle_11_Copy_8" data-name="Rectangle 11 Copy 8" width="13.111" height="13.111" transform="translate(26.222)" fill="#d40d3a"/>
      <rect id="Rectangle_11_Copy_7" data-name="Rectangle 11 Copy 7" width="13.111" height="13.111" transform="translate(39.333 13.111)" fill="#d40d3a"/>
      <rect id="Rectangle_11_Copy_10" data-name="Rectangle 11 Copy 10" width="13.111" height="13.111" transform="translate(39.333 39.333)" fill="#d40d3a"/>
      <rect id="Rectangle_11_Copy_11" data-name="Rectangle 11 Copy 11" width="13.111" height="13.111" transform="translate(39.333 65.556)" fill="#d40d3a"/>
    </g>
  </g>
</svg>
