<svg xmlns="http://www.w3.org/2000/svg" xmlns:xlink="http://www.w3.org/1999/xlink" fill="none" version="1.1" width="183.9488525390625" height="183.9488983154297" viewBox="0 0 183.9488525390625 183.9488983154297"><g><g transform="matrix(1,0.0020716008730232716,-0.0020716008730232716,1,0,-0.0007877242089193714)"><rect x="0.3802490234375" y="0" width="183.56861877441406" height="183.56861877441406" rx="47.40855407714844" fill="#FEFEFE" fill-opacity="1"/></g><g><path d="M122.8032,63.6287C125.9878,61.6285,126.9559,57.41275,124.9655,54.21251C122.9751,51.0122884,118.78,50.039428,115.5954,52.03957C115.5954,52.03957,61.31511,86.1312,61.31511,86.1312C60.83865,86.41640000000001,60.39325,86.7627,59.99157,87.167C58.697863,88.4647,58.00168729,90.2165,58.00000306317,92C57.999096951,92.95949999999999,58.199206,93.92830000000001,58.61543,94.84049999999999C58.947035,95.5715,59.40901,96.2488,59.99245,96.8338C60.39387,97.2378,60.83892,97.5838,61.31498,97.8688C61.31498,97.8688,115.5954,131.9604,115.5954,131.9604C118.78,133.9606,122.9751,132.98770000000002,124.9655,129.7875C126.9559,126.5873,125.9878,122.3716,122.8032,120.3714C122.8032,120.3714,77.6306,92,77.6306,92C77.6306,92,122.8032,63.6287,122.8032,63.6287C122.8032,63.6287,122.8032,63.6287,122.8032,63.6287Z" fill="#000000" fill-opacity="1"/></g></g></svg>