<svg id="火车" xmlns="http://www.w3.org/2000/svg" xmlns:xlink="http://www.w3.org/1999/xlink" width="120" height="120" viewBox="0 0 120 120">
  <defs>
    <linearGradient id="linear-gradient" x1="0.23" x2="0.667" y2="1" gradientUnits="objectBoundingBox">
      <stop offset="0" stop-color="#00cb47"/>
      <stop offset="1" stop-color="#0ab655"/>
    </linearGradient>
    <linearGradient id="linear-gradient-2" x1="0.583" y1="1" x2="0.5" gradientUnits="objectBoundingBox">
      <stop offset="0" stop-color="#3cdb42"/>
      <stop offset="1" stop-color="#39ea5b"/>
    </linearGradient>
  </defs>
  <g id="火车-2" data-name="火车">
    <path id="矩形" d="M2.022,11.285A11.968,11.968,0,0,1,13.97,0H76.7A11.968,11.968,0,0,1,88.645,11.285l2,34.934q.026.455.026.91V67.337A20.663,20.663,0,0,1,70,88H20.661A20.661,20.661,0,0,1,0,67.339V47.133q0-.455.026-.91Z" transform="translate(14.667 10.667)" fill="url(#linear-gradient)"/>
    <path id="三角形" d="M36.3,0,71.711,31.349A2.66,2.66,0,0,1,69.948,36H2.648A2.66,2.66,0,0,1,.885,31.349Z" transform="translate(23.576 76)" fill="url(#linear-gradient-2)" style="mix-blend-mode: multiply;isolation: isolate"/>
    <rect id="矩形-2" data-name="矩形" width="58.667" height="37.333" rx="7.979" transform="translate(30.667 30.667)" fill="#02a119"/>
  </g>
</svg>
