<?xml version="1.0" standalone="no"?><!DOCTYPE svg PUBLIC "-//W3C//DTD SVG 1.1//EN" "http://www.w3.org/Graphics/SVG/1.1/DTD/svg11.dtd"><svg t="1737208513760" class="icon" viewBox="0 0 1024 1024" version="1.1" xmlns="http://www.w3.org/2000/svg" p-id="6868" xmlns:xlink="http://www.w3.org/1999/xlink" width="200" height="200"><path d="M512 512m-512 0a512 512 0 1 0 1024 0 512 512 0 1 0-1024 0Z" fill="#DE7AFD" p-id="6869"></path><path d="M140.4844 241.955886a46.55193 101.696557 29.75 1 0 80.832661 46.199672 46.55193 101.696557 29.75 1 0-80.832661-46.199672Z" fill="#FFFFFF" p-id="6870"></path><path d="M93.495652 431.86087m-22.260869 0a22.26087 22.26087 0 1 0 44.521739 0 22.26087 22.26087 0 1 0-44.521739 0Z" fill="#FFFFFF" p-id="6871"></path><path d="M832.556522 857.043478a24.486957 24.486957 0 1 0 0-48.973913 24.486957 24.486957 0 0 0 0 48.973913z m0 24.486957a48.973913 48.973913 0 1 0 0-97.947826 48.973913 48.973913 0 0 0 0 97.947826z" fill="#FFFFFF" p-id="6872"></path><path d="M213.704348 430.881391c0-39.66887 10.462609-78.4384 30.061078-111.339965 19.589565-32.901565 47.415652-58.448139 79.925426-73.371826 32.50087-14.932591 68.207304-18.556661 102.551374-10.418087 34.335165 8.147478 65.749704 27.692522 90.209948 56.1152 24.460243-28.431583 55.874783-47.967722 90.209948-56.106296 34.335165-8.147478 70.0416-4.523409 102.551374 10.400279 32.50087 14.932591 60.335861 40.479165 79.925426 73.38073C808.728487 352.442991 819.2 391.212522 819.2 430.881391c0.06233 31.138504-6.3488 61.858504-18.734748 89.666783-12.385948 27.817183-30.390539 51.939061-52.553461 70.424487l-199.546434 185.896069c-11.103722 10.329043-25.092452 15.876452-39.46407 15.618227-14.380522-0.258226-28.208974-6.28647-39.009948-17.007305L275.527235 582.442296c-19.411478-18.69913-34.976278-41.939478-45.652592-68.100453A221.005913 221.005913 0 0 1 213.704348 430.872487z" fill="#FFFFFF" p-id="6873"></path></svg>