<svg xmlns="http://www.w3.org/2000/svg" viewBox="0 0 750 500"><g id="freepik--background-complete--inject-613"><g><path d="M365.041,372.617c1.031-4.594,1.247-6.505,1.969-11.238,.838-5.492,.515-12.476-2.743-15.641-6.042,8.764-4.685,19.386-4.049,27.391-3.958-10.836-9.765-20.993-17.059-29.841-1.283,5.874-.339,12.231,2.157,17.801,2.496,5.57,6.479,10.377,11.117,14.217-7.418-3.65-15.391-6.004-23.471-6.931,8.213,8.255,17.991,13.023,29.224,13.562l1.887-.686c8.331-2.799,13.667-9.021,17.237-14.354,1.504-2.246,3.206-5.509,2.554-6.154-6.765,3.522-12.951,6.948-18.824,11.872Z" style="fill:#e0e0e0;"></path><g><path d="M358.003,376.206c-5.648-21.318-7.907-43.295-6.715-65.319l.999,.055c-1.187,21.919,1.061,43.791,6.683,65.009l-.967,.256Z" style="fill:#e0e0e0;"></path><path d="M351.01,325.265h0c-1.709-.085-3.026-1.54-2.941-3.249l.636-12.769c.085-1.709,1.54-3.026,3.249-2.941h0c1.709,.085,3.026,1.54,2.941,3.249l-.636,12.769c-.085,1.709-1.54,3.026-3.249,2.941Z" style="fill:#e0e0e0;"></path></g><g><path d="M361.207,377.94l-.7-.715c8.193-8.023,20.893-46.649,21.021-47.038l.95,.31c-.523,1.599-12.906,39.249-21.271,47.442Z" style="fill:#e0e0e0;"></path><path d="M378.295,340.271h0c-1.624-.54-2.503-2.294-1.963-3.918l4.033-12.132c.54-1.624,2.294-2.503,3.918-1.963h0c1.624,.54,2.503,2.294,1.963,3.918l-4.033,12.132c-.54,1.624-2.294,2.503-3.918,1.963Z" style="fill:#e0e0e0;"></path></g></g><g><g><rect y="335.071" width="750" height=".12" style="fill:#e0e0e0;"></rect><rect x="653.626" y="364.447" width="55.729" height=".421" style="fill:#ebebeb;"></rect><rect x="495.044" y="369.013" width="14.627" height=".421" style="fill:#ebebeb;"></rect><rect x="40.645" y="351.65" width="72.675" height=".421" style="fill:#ebebeb;"></rect><rect x="128.299" y="351.65" width="10.655" height=".421" style="fill:#ebebeb;"></rect><rect x="173.586" y="358.754" width="157.613" height=".421" style="fill:#ebebeb;"></rect></g><g><path d="M673.734,298.197h-180.746c-3.232,0-5.862-2.63-5.862-5.862V29.061c0-3.232,2.63-5.862,5.862-5.862h180.746c3.232,0,5.862,2.629,5.862,5.862V292.335c0,3.233-2.63,5.862-5.862,5.862ZM492.988,23.45c-3.095,0-5.612,2.518-5.612,5.612V292.335c0,3.095,2.518,5.612,5.612,5.612h180.746c3.095,0,5.612-2.518,5.612-5.612V29.061c0-3.094-2.518-5.612-5.612-5.612h-180.746Z" style="fill:#e0e0e0;"></path><path d="M465.306,298.197h-180.747c-3.232,0-5.862-2.63-5.862-5.862V29.061c0-3.232,2.629-5.862,5.862-5.862h180.747c3.232,0,5.862,2.629,5.862,5.862V292.335c0,3.233-2.63,5.862-5.862,5.862ZM284.559,23.45c-3.094,0-5.612,2.518-5.612,5.612V292.335c0,3.095,2.518,5.612,5.612,5.612h180.747c3.095,0,5.612-2.518,5.612-5.612V29.061c0-3.094-2.518-5.612-5.612-5.612h-180.747Z" style="fill:#e0e0e0;"></path></g><path d="M257.012,298.197H76.266c-3.232,0-5.862-2.63-5.862-5.862V29.061c0-3.232,2.629-5.862,5.862-5.862h180.746c3.232,0,5.862,2.629,5.862,5.862V292.335c0,3.233-2.63,5.862-5.862,5.862ZM76.266,23.45c-3.094,0-5.612,2.518-5.612,5.612V292.335c0,3.095,2.518,5.612,5.612,5.612h180.746c3.095,0,5.612-2.518,5.612-5.612V29.061c0-3.094-2.517-5.612-5.612-5.612H76.266Z" style="fill:#e0e0e0;"></path></g><g><path d="M112.808,369.617c1.363-6.073,1.649-8.599,2.603-14.856,1.107-7.26,.68-16.493-3.626-20.676-7.987,11.585-6.193,25.627-5.352,36.208-5.233-14.325-12.908-27.751-22.55-39.447-1.696,7.765-.448,16.168,2.852,23.532,3.299,7.363,8.565,13.717,14.696,18.794-9.806-4.825-20.345-7.937-31.026-9.162,10.856,10.912,23.782,17.215,38.631,17.928l2.495-.906c11.013-3.701,18.066-11.925,22.786-18.974,1.988-2.969,4.239-7.282,3.376-8.134-8.942,4.656-17.12,9.185-24.884,15.694Z" style="fill:#e0e0e0;"></path><g><path d="M103.504,374.361c-7.466-28.181-10.453-57.232-8.876-86.346l1.321,.072c-1.569,28.975,1.403,57.887,8.834,85.935l-1.278,.338Z" style="fill:#e0e0e0;"></path><path d="M94.26,307.022h0c-2.26-.113-4-2.035-3.887-4.295l.841-16.879c.112-2.26,2.035-4,4.295-3.887h0c2.26,.113,4,2.035,3.887,4.295l-.841,16.879c-.112,2.26-2.035,4-4.295,3.888Z" style="fill:#e0e0e0;"></path></g><g><path d="M107.739,376.653l-.926-.945c10.83-10.606,27.619-61.666,27.788-62.18l1.256,.41c-.691,2.113-17.06,51.883-28.118,62.714Z" style="fill:#e0e0e0;"></path><path d="M130.328,326.858h0c-2.147-.714-3.309-3.032-2.595-5.179l5.331-16.037c.714-2.147,3.032-3.308,5.179-2.595h0c2.147,.714,3.309,3.032,2.595,5.179l-5.331,16.037c-.714,2.147-3.032,3.308-5.179,2.595Z" style="fill:#e0e0e0;"></path></g></g><path d="M559.826,355.597c.78,.864,14.101,24.697,35.968,26.756,21.867,2.059,116.67,0,116.67,0l15.56-20.961-168.199-5.795Z" style="fill:#e0e0e0;"></path><path d="M632.834,215.005c-2.989-2.258-7.349-2.514-10.581-.621-4.29-8.67-16.246-12.496-24.773-7.928-2.225-9.342-11.429-16.523-21.032-16.408-9.603,.116-18.632,7.516-20.631,16.909-.318,1.493-.528,3.128-1.596,4.219-1.734,1.771-4.63,1.177-7.102,.984-7.777-.607-15.602,4.853-17.717,12.362l107.098-.39c.938-3.626-.676-6.869-3.665-9.127Z" style="fill:#f0f0f0;"></path><path d="M383.062,79.746c-2.102-1.588-5.17-1.768-7.443-.437-3.018-6.099-11.428-8.79-17.426-5.577-1.565-6.572-8.04-11.623-14.795-11.542-6.755,.081-13.106,5.287-14.512,11.895-.223,1.05-.371,2.2-1.123,2.967-1.22,1.246-3.257,.828-4.996,.692-5.471-.427-10.975,3.414-12.463,8.696l75.336-.274c.66-2.551-.476-4.832-2.578-6.42Z" style="fill:#e6e6e6;"></path><path d="M197.34,203.036c-2.637-1.993-6.486-2.219-9.338-.548-3.786-7.651-14.337-11.028-21.862-6.997-1.963-8.244-10.086-14.582-18.561-14.48-8.475,.102-16.443,6.633-18.207,14.922-.28,1.317-.466,2.761-1.408,3.723-1.531,1.563-4.086,1.039-6.268,.868-6.863-.535-13.769,4.283-15.636,10.909l94.514-.344c.828-3.2-.597-6.062-3.234-8.055Z" style="fill:#e6e6e6;"></path><path d="M115.184,91.23c-1.545-1.167-3.799-1.299-5.47-.321-2.217-4.481-8.398-6.459-12.805-4.098-1.15-4.829-5.908-8.541-10.871-8.481-4.964,.06-9.631,3.885-10.664,8.74-.164,.772-.273,1.617-.825,2.181-.897,.916-2.393,.608-3.671,.509-4.02-.314-8.065,2.509-9.158,6.39l55.358-.202c.485-1.874-.35-3.55-1.894-4.718Z" style="fill:#e6e6e6;"></path><path d="M459.301,174.119c-1.545-1.167-3.799-1.299-5.469-.321-2.218-4.481-8.398-6.459-12.805-4.098-1.15-4.829-5.908-8.541-10.871-8.481-4.964,.06-9.631,3.885-10.664,8.74-.164,.772-.273,1.617-.825,2.181-.896,.916-2.393,.608-3.671,.509-4.02-.314-8.065,2.509-9.158,6.39l55.358-.202c.485-1.874-.349-3.55-1.894-4.718Z" style="fill:#e6e6e6;"></path><path d="M481.043,117.222c-1.545-1.167-3.799-1.299-5.469-.321-2.218-4.481-8.397-6.459-12.805-4.098-1.15-4.829-5.908-8.541-10.871-8.481-4.964,.06-9.631,3.885-10.664,8.74-.164,.772-.273,1.617-.825,2.181-.897,.916-2.393,.608-3.671,.509-4.02-.314-8.064,2.509-9.158,6.39l55.358-.202c.485-1.874-.35-3.55-1.894-4.718Z" style="fill:#f0f0f0;"></path><path d="M707.206,108.312c-1.545-1.167-3.799-1.299-5.469-.321-2.218-4.481-8.398-6.459-12.805-4.098-1.15-4.829-5.908-8.541-10.871-8.481-4.964,.06-9.631,3.885-10.664,8.74-.164,.772-.273,1.617-.825,2.181-.897,.916-2.393,.608-3.671,.509-4.02-.314-8.064,2.509-9.158,6.39l55.358-.202c.485-1.874-.35-3.55-1.895-4.718Z" style="fill:#f0f0f0;"></path></g><g id="freepik--Shadows--inject-613"><path d="M530.451,467.104c0,3.387-20.51,6.132-45.809,6.132s-45.809-2.745-45.809-6.132,20.51-6.132,45.809-6.132,45.809,2.745,45.809,6.132Z" style="fill:#f5f5f5;"></path><path d="M350.171,467.104c0,3.387-20.51,6.132-45.81,6.132s-45.809-2.745-45.809-6.132,20.51-6.132,45.809-6.132,45.81,2.745,45.81,6.132Z" style="fill:#f5f5f5;"></path></g><g id="freepik--Plant--inject-613"><g><path d="M591.192,370.13c1.275-5.684,1.543-8.047,2.436-13.903,1.036-6.794,.637-15.435-3.394-19.35-7.474,10.842-5.796,23.983-5.009,33.885-4.897-13.406-12.08-25.971-21.104-36.916-1.587,7.267-.419,15.131,2.669,22.022,3.088,6.891,8.016,12.837,13.753,17.588-9.177-4.515-19.04-7.427-29.036-8.574,10.16,10.212,22.257,16.111,36.153,16.778l2.335-.848c10.307-3.463,16.907-11.16,21.324-17.757,1.86-2.779,3.967-6.815,3.159-7.613-8.369,4.358-16.022,8.596-23.288,14.687Z" style="fill:#263238;"></path><g><path d="M582.6,374.539c-6.984-26.364-9.777-53.539-8.302-80.771l.998,.055c-1.47,27.127,1.312,54.198,8.271,80.461l-.967,.256Z" style="fill:#263238;"></path><path d="M573.834,311.55h0c-2.114-.105-3.743-1.905-3.638-4.02l.787-15.797c.105-2.115,1.905-3.743,4.019-3.638h0c2.114,.105,3.743,1.905,3.638,4.019l-.787,15.797c-.105,2.114-1.905,3.743-4.019,3.638Z" style="fill:#407BFF;"></path></g><g><path d="M586.366,376.63l-.699-.715c10.155-9.945,25.876-57.757,26.033-58.238l.951,.311c-.647,1.977-15.956,48.526-26.285,58.643Z" style="fill:#263238;"></path><path d="M607.589,330.113h0c-2.009-.668-3.096-2.838-2.428-4.847l4.989-15.009c.668-2.009,2.838-3.096,4.847-2.428h0c2.009,.668,3.096,2.838,2.428,4.847l-4.989,15.009c-.668,2.009-2.838,3.096-4.847,2.428Z" style="fill:#407BFF;"></path></g></g></g><g id="freepik--Sun--inject-613"><g id="freepik--freepik--Sun--inject-5--inject-613"><g><path d="M633.145,88.438c0,3.752-5.427,6.733-6.353,10.189-.926,3.456,2.221,8.871,.416,11.994-1.805,3.123-8.027,3.064-10.604,5.629-2.577,2.565-2.458,8.775-5.629,10.604-3.171,1.829-8.419-1.366-11.994-.416-3.574,.95-6.448,6.353-10.189,6.353s-6.733-5.427-10.189-6.353c-3.456-.926-8.859,2.233-11.994,.416-3.135-1.817-3.052-8.028-5.629-10.604-2.577-2.577-8.764-2.446-10.604-5.629-1.841-3.182,1.366-8.455,.416-12.017s-6.353-6.436-6.353-10.189,5.427-6.721,6.353-10.177c.926-3.455-2.221-8.87-.416-11.994,1.805-3.123,8.027-3.064,10.604-5.641,2.577-2.577,2.458-8.764,5.629-10.604,3.171-1.841,8.419,1.378,11.994,.416,3.574-.962,6.448-6.341,10.189-6.341s6.733,5.427,10.189,6.341c3.455,.914,8.859-2.221,11.994-.416,3.135,1.805,3.052,8.028,5.629,10.604,2.577,2.577,8.764,2.458,10.604,5.641,1.841,3.182-1.365,8.419-.415,11.994,.95,3.574,6.353,6.46,6.353,10.201Z" style="fill:#407BFF;"></path><path d="M633.145,88.438c0,3.752-5.427,6.733-6.353,10.189-.926,3.456,2.221,8.871,.416,11.994-1.805,3.123-8.027,3.064-10.604,5.629-2.577,2.565-2.458,8.775-5.629,10.604-3.171,1.829-8.419-1.366-11.994-.416-3.574,.95-6.448,6.353-10.189,6.353s-6.733-5.427-10.189-6.353c-3.456-.926-8.859,2.233-11.994,.416-3.135-1.817-3.052-8.028-5.629-10.604-2.577-2.577-8.764-2.446-10.604-5.629-1.841-3.182,1.366-8.455,.416-12.017s-6.353-6.436-6.353-10.189,5.427-6.721,6.353-10.177c.926-3.455-2.221-8.87-.416-11.994,1.805-3.123,8.027-3.064,10.604-5.641,2.577-2.577,2.458-8.764,5.629-10.604,3.171-1.841,8.419,1.378,11.994,.416,3.574-.962,6.448-6.341,10.189-6.341s6.733,5.427,10.189,6.341c3.455,.914,8.859-2.221,11.994-.416,3.135,1.805,3.052,8.028,5.629,10.604,2.577,2.577,8.764,2.458,10.604,5.641,1.841,3.182-1.365,8.419-.415,11.994,.95,3.574,6.353,6.46,6.353,10.201Z" style="fill:#fff;"></path></g><circle cx="588.79" cy="88.433" r="31.694" transform="translate(175.724 517.234) rotate(-54.612)" style="fill:#407BFF;"></circle></g></g><g id="freepik--Birds--inject-613"><g><g><path d="M202.636,89.222s.622-8.811,2.267-10.187c1.645-1.376,11.706-4.719,11.706-4.719,0,0-3.98,13.583-6.399,15.15-2.419,1.567-7.574-.244-7.574-.244Z" style="fill:#407BFF;"></path><path d="M216.608,74.315h0c-.124,.418-4.022,13.618-6.399,15.15-1.594,.698-3.308,.842-4.962,.418-.88-.157-1.752-.377-2.612-.662,0,0,.636-8.829,2.267-10.187,1.631-1.358,10.78-4.423,11.651-4.702h0l.055-.017Z" style="fill:#fff; opacity:.6;"></path><path d="M197.508,83.928c2.28,0,7.477,3.135,9.191,3.291s10.227-7.227,12.052-8.446c1.824-1.219,17.87-3.936,17.87-3.936,0,0-10.642,13.722-17.87,14.123,0,0,5.349,1.881,6.91,1.376,4.951-1.286,5.905-1.804,10.96-1.745l-5.805,3.956,8.693,1.341c-4.023,.901-8.125,1.095-12.19,.575-3.106,1.434-6.3,2.547-9.55,3.326-4.523,1.461-9.329,.222-13.033-3.361-3.124-3.187-13.42-6.792-13.42-6.792l3.51-1.567c.511-1.284,1.542-2.108,2.681-2.142Z" style="fill:#407BFF;"></path><path d="M197.508,83.928c2.28,0,7.477,3.135,9.191,3.291s10.227-7.227,12.052-8.446c1.824-1.219,17.87-3.936,17.87-3.936,0,0-10.642,13.722-17.87,14.123,0,0,5.349,1.881,6.91,1.376,4.951-1.286,5.905-1.804,10.96-1.745l-5.805,3.956,8.693,1.341c-4.023,.901-8.125,1.095-12.19,.575-3.106,1.434-6.3,2.547-9.55,3.326-4.523,1.461-9.329,.222-13.033-3.361-3.124-3.187-13.42-6.792-13.42-6.792l3.51-1.567c.511-1.284,1.542-2.108,2.681-2.142Z" style="fill:#fff; opacity:.8;"></path><polygon points="194.758 86.122 195.753 87.028 195.158 89.222 191.316 87.637 194.758 86.122" style="fill:#263238;"></polygon><path d="M199.088,87.088c0,.582-.374,1.053-.836,1.053s-.836-.472-.836-1.053,.374-1.053,.836-1.053,.836,.471,.836,1.053Z" style="fill:#263238;"></path></g><g><path d="M142.921,137.83c1.659-1.391,8.493,8.45,11.721,9.68-2.298,1.056-4.788,1.099-7.105,.121-3.56-1.674-6.366-8.349-4.616-9.801Z" style="fill:#407BFF;"></path><path d="M154.642,147.51c-2.298,1.046-4.785,1.096-7.105,.141-3.56-1.674-6.366-8.369-4.616-9.821,.392-.343,1.071,0,1.931,.625,2.761,2.158,7.331,8.107,9.79,9.055Z" style="fill:#fff; opacity:.6;"></path><path d="M137.535,135.934c1.674-.504,5.853,1.049,7.135,.867,1.282-.182,9.051-.887,9.051-.887,2.146-.328,3.682-.417,5.411-.818,3.498-1.923,6.962-2.747,10.685-3.639l-6.834,5.001,6.502-.504c-2.862,1.462-5.863,2.385-8.916,2.743-2.129,1.681-4.354,3.138-6.653,4.356-3.164,1.994-6.839,1.919-9.956-.202-2.655-1.896-10.635-2.803-10.635-2.803l2.414-1.876c.227-1.145,.925-2.015,1.795-2.238Z" style="fill:#407BFF;"></path><path d="M137.535,135.934c1.674-.504,5.853,1.049,7.135,.867,1.282-.182,9.051-.887,9.051-.887,2.146-.328,3.682-.417,5.411-.818,3.498-1.923,6.962-2.747,10.685-3.639l-6.834,5.001,6.502-.504c-2.862,1.462-5.863,2.385-8.916,2.743-2.129,1.681-4.354,3.138-6.653,4.356-3.164,1.994-6.839,1.919-9.956-.202-2.655-1.896-10.635-2.803-10.635-2.803l2.414-1.876c.227-1.145,.925-2.015,1.795-2.238Z" style="fill:#fff; opacity:.8;"></path><polygon points="135.695 138.173 136.525 138.677 136.329 140.492 133.281 140.048 135.695 138.173" style="fill:#263238;"></polygon><path d="M146.556,136.882c3.017-2.138,20.425,7.159,27.576,7.583-4.792,2.001-9.819,2.801-14.829,2.36-8.041-.827-15.96-7.704-12.747-9.942Z" style="fill:#407BFF;"></path><path d="M138.637,138.409c0,.462-.297,.836-.663,.836s-.663-.374-.663-.836,.297-.836,.663-.836,.663,.374,.663,.836Z" style="fill:#263238;"></path></g><path d="M146.556,136.882c3.017-2.138,20.425,7.159,27.576,7.583-4.792,2.001-9.819,2.801-14.829,2.36-8.041-.827-15.96-7.704-12.747-9.942Z" style="fill:#fff; opacity:.8;"></path></g></g><g id="freepik--Bucket--inject-613"><g><g><path d="M179.593,314.332l6.132-47.439h-50.307l6.132,47.439c-.531,.151-.931,.621-.931,1.199,0,.697,.57,1.268,1.267,1.268h37.371c.697,0,1.268-.57,1.268-1.268,0-.578-.4-1.048-.931-1.199Z" style="fill:#407BFF;"></path><path d="M179.593,314.332l6.132-47.439h-50.307l6.132,47.439c-.531,.151-.931,.621-.931,1.199,0,.697,.57,1.268,1.267,1.268h37.371c.697,0,1.268-.57,1.268-1.268,0-.578-.4-1.048-.931-1.199Z" style="fill:#fff; opacity:.4;"></path></g><polygon points="185.724 266.893 135.417 266.893 136.297 273.699 185.244 270.612 185.724 266.893" style="opacity:.2;"></polygon><g><path d="M189.172,264.649h-3.903c-1.005-12.751-11.694-22.82-24.699-22.82s-23.694,10.07-24.698,22.82h-3.903c-1.08,0-1.963,.883-1.963,1.963s.883,1.963,1.963,1.963h57.203c1.079,0,1.963-.883,1.963-1.963s-.883-1.963-1.963-1.963Zm-28.602-21.716c12.394,0,22.577,9.577,23.58,21.716h-47.16c1.003-12.139,11.185-21.716,23.58-21.716Z" style="fill:#407BFF;"></path><path d="M189.172,264.649h-3.903c-1.005-12.751-11.694-22.82-24.699-22.82s-23.694,10.07-24.698,22.82h-3.903c-1.08,0-1.963,.883-1.963,1.963s.883,1.963,1.963,1.963h57.203c1.079,0,1.963-.883,1.963-1.963s-.883-1.963-1.963-1.963Zm-28.602-21.716c12.394,0,22.577,9.577,23.58,21.716h-47.16c1.003-12.139,11.185-21.716,23.58-21.716Z" style="fill:#fff; opacity:.4;"></path></g></g></g><g id="freepik--Shoes--inject-613"><g><g><g><path d="M249.728,302.471h2.824c.639,0,1.23,.357,1.608,.927,1.628,2.459,2.852,1.529,4.623-.782,1.126-.145,1.429,1.284,1.521,1.667l2.111,8.49c.183,.709-.188,1.448-.829,1.651-.114,.036-.232,.053-.351,.051h-22.372c-3.558,0-4.296-3.965-2.83-4.332,6.591-1.61,11.258-3.755,13.295-5.874,.378-.371-.01-.649,.4-1.798Z" style="fill:#263238;"></path><path d="M245.877,305.312c.891-.024,1.778-.15,2.645-.377,.081-.032,.124-.132,.095-.222-.016-.049-.05-.087-.095-.104-.396-.214-3.927-2.038-4.812-1.345-.166,.119-.255,.333-.23,.55,.004,.405,.182,.783,.479,1.019,.577,.381,1.248,.549,1.917,.479Zm2.092-.612c-1.042,.214-2.977,.499-3.779-.163-.208-.181-.336-.452-.35-.744-.016-.092,.02-.185,.092-.235,.488-.377,2.572,.428,4.037,1.141Z" style="fill:#407BFF;"></path><path d="M248.486,304.945c.036,.012,.075,.012,.111,0,.047-.046,.065-.118,.046-.183,0-.163-.83-4.005-2.765-3.761-.479,.071-.618,.326-.636,.54-.12,1.019,2.102,2.945,3.162,3.435l.083-.03Zm-2.415-3.639c1.226,0,1.936,2.242,2.175,3.139-1.152-.673-2.765-2.273-2.664-2.895,0-.051,0-.193,.359-.234l.129-.01Z" style="fill:#407BFF;"></path></g></g><g><path d="M235.62,302.471h2.824c.639,0,1.23,.357,1.607,.927,1.628,2.459,2.852,1.529,4.623-.782,1.126-.145,1.429,1.284,1.521,1.667l2.111,8.49c.183,.709-.188,1.448-.829,1.651-.114,.036-.232,.053-.351,.051h-22.372c-3.558,0-4.295-3.965-2.83-4.332,6.591-1.61,11.258-3.755,13.295-5.874,.378-.371-.01-.649,.4-1.798Z" style="fill:#263238;"></path><path d="M231.77,305.312c.891-.024,1.778-.15,2.645-.377,.081-.032,.124-.132,.095-.222-.016-.049-.05-.087-.095-.104-.396-.214-3.927-2.038-4.812-1.345-.166,.119-.255,.333-.231,.55,.004,.405,.182,.783,.479,1.019,.577,.381,1.248,.549,1.917,.479Zm2.092-.612c-1.042,.214-2.977,.499-3.779-.163-.208-.181-.336-.452-.35-.744-.017-.092,.02-.185,.092-.235,.488-.377,2.572,.428,4.037,1.141Z" style="fill:#407BFF;"></path><path d="M234.379,304.945c.036,.012,.075,.012,.111,0,.047-.046,.065-.118,.046-.183,0-.163-.83-4.005-2.765-3.761-.479,.071-.618,.326-.636,.54-.12,1.019,2.102,2.945,3.162,3.435l.083-.03Zm-2.415-3.639c1.226,0,1.936,2.242,2.175,3.139-1.152-.673-2.765-2.273-2.664-2.895,0-.051,0-.193,.359-.234l.129-.01Z" style="fill:#407BFF;"></path></g></g></g><g id="freepik--Dock--inject-613"><g><g><rect x="304.314" y="330.845" width="21.386" height="101.956" style="fill:#b97964;"></rect><rect x="304.314" y="381.823" width="21.386" height="50.978" style="fill:#407BFF; opacity:.3;"></rect><rect x="304.314" y="330.845" width="21.386" height="15.455" style="fill:#a24e3f;"></rect></g><g><rect x="417.427" y="330.845" width="21.386" height="101.956" style="fill:#b97964;"></rect><rect x="417.427" y="330.845" width="21.386" height="12.838" style="fill:#a24e3f;"></rect></g><rect x="11.765" y="314.523" width="444.009" height="16.322" style="fill:#b97964;"></rect><g><rect x="164.379" y="330.845" width="21.386" height="101.956" style="fill:#b97964;"></rect><rect x="164.379" y="330.845" width="21.386" height="12.838" style="fill:#a24e3f;"></rect></g><rect x="164.379" y="381.823" width="21.386" height="50.978" style="fill:#407BFF; opacity:.3;"></rect><g><g><rect x="19.258" y="330.845" width="21.386" height="101.956" style="fill:#b97964;"></rect><rect x="19.258" y="330.845" width="21.386" height="12.838" style="fill:#a24e3f;"></rect></g><rect x="19.258" y="391.285" width="21.386" height="41.516" style="fill:#407BFF; opacity:.3;"></rect></g><rect x="417.427" y="380.926" width="21.386" height="51.875" style="fill:#407BFF; opacity:.3;"></rect></g></g><g id="freepik--Speech_Bubble--inject-613"><g><path d="M294.725,151.69c8.805-5.742,20.597-3.258,26.338,5.547,5.506,8.444,3.444,19.631-4.499,25.598l-.487,5.988-4.965-3.123c-8.008,2.661-17.108-.271-21.933-7.672-5.741-8.805-3.258-20.597,5.547-26.338Z" style="fill:#407BFF;"></path><path d="M326.722,165.375c-.203,0-.37-.162-.375-.366-.144-6.038-3.574-11.959-8.739-15.087-.177-.107-.234-.338-.126-.515,.107-.176,.337-.233,.515-.126,5.379,3.257,8.951,9.423,9.101,15.711,.005,.207-.159,.379-.366,.384h-.009Z" style="fill:#407BFF;"></path><path d="M326.385,171.009c-.039,0-.078-.006-.116-.019-.197-.064-.305-.275-.24-.473,.275-.845,.374-1.758,.288-2.642-.021-.206,.13-.39,.336-.41,.207-.022,.39,.13,.41,.336,.097,.986-.014,2.005-.321,2.948-.051,.158-.198,.259-.356,.259Z" style="fill:#407BFF;"></path><path d="M312.335,165.976c-.106-.953-.565-1.847-1.201-2.564-.623-.703-1.439-1.258-2.356-1.461-.975-.216-2.035-.011-2.859,.551-.491,.334-.894,.792-1.172,1.316-.27-.466-.64-.875-1.084-1.182-.821-.568-1.879-.779-2.855-.57-.919,.197-1.738,.746-2.366,1.445-.641,.713-1.106,1.604-1.219,2.556-.141,1.193,.085,2.5,.701,3.532,.65,1.089,1.703,1.971,2.787,2.629,1.823,1.107,4.224,2.493,4.224,2.493,0,0,2.039-1.513,3.869-2.608,1.089-.651,2.148-1.525,2.805-2.61,.623-1.027,.858-2.333,.726-3.527Z" style="fill:#fff;"></path></g></g><g id="freepik--Character_2--inject-613"><g><g><path d="M359.595,159.604l6.862,5.691,9.342,7.759c-.274,1.263-.487,2.541-.594,3.774-.502,5.066,.949,10.079,8.404,11.843,0,0,5.831,2.045-8.832,2.251-14.663,.206-16.749-1.929-16.749-1.929,5.584-5.507,3.469-21.127,1.567-29.388Z" style="fill:#ffbdb7;"></path><path d="M375.799,173.054c-.274,1.263-.487,2.542-.594,3.774-3.484-.701-8.14-4.413-8.627-7.973-.183-1.339-.213-2.632-.122-3.56l9.342,7.759Z" style="opacity:.2;"></path><path d="M382.124,153.56c5.334-1.21,7.899-9.773,5.986-16.313-2.54-8.679-11.101-8.105-17.603-3.043-8.033,6.254,3.345,21.231,11.618,19.355Z" style="fill:#263238;"></path><path d="M356.766,147.722c2.385,10.968,3.223,17.49,9.701,22.495,9.745,7.529,22.66,.84,23.607-10.504,.852-10.211-3.192-26.433-14.731-29.539-11.368-3.06-20.963,6.579-18.577,17.548Z" style="fill:#ffbdb7;"></path><path d="M362.418,155.889c4.797-2.628,3.368-15.167,1.276-17.33-2.092-2.163-12.9-4.745-17.762,1.909-6.006,8.22,9.047,19.496,16.486,15.421Z" style="fill:#263238;"></path><path d="M358.83,139.029c6.763,1.694,5.599-4.127,17.489-2.827,8.815,.964,16.17-5.402,15.986-12.874-.226-9.16-12.646-13.996-19.308-6.192-6.661,7.803-11.971,13.852-22.783,12.959-8.411-.695-9.144,12.147,.113,13.247,5.436,.646,8.503-4.313,8.503-4.313Z" style="fill:#263238;"></path><path d="M380.024,136.725c2.948,0,5.815-.818,8.25-2.406,3.109-2.026,5.17-5.144,5.654-8.557,.027-.19-.105-.365-.295-.392-.181-.023-.365,.104-.392,.295-.463,3.261-2.361,6.128-5.346,8.073-3.482,2.269-7.896,2.89-12.108,1.702-.188-.051-.377,.056-.428,.24-.051,.184,.056,.376,.24,.428,1.465,.412,2.956,.616,4.425,.616Z" style="fill:#263238;"></path><path d="M354.825,157.642c1.277,2.329,3.416,3.921,5.4,4.587,2.985,1.002,4.342-1.678,3.399-4.621-.849-2.649-3.424-6.363-6.365-6.087-2.898,.271-3.894,3.458-2.434,6.121Z" style="fill:#ffbdb7;"></path><path d="M380.967,148.469s3.172,3.685,5.741,5.136c-.88,1.619-3.297,1.768-3.297,1.768l-2.444-6.904Z" style="fill:#ff7c77;"></path><path d="M381.383,160.199c-3.551,.489-5.841-1.451-5.945-1.541-.112-.097-.123-.265-.027-.377,.096-.112,.265-.123,.376-.027,.026,.022,2.631,2.234,6.5,1.221,.144-.039,.289,.048,.326,.191,.038,.142-.048,.289-.191,.326-.357,.093-.704,.162-1.039,.208Z" style="fill:#263238;"></path><path d="M369.756,143.151c-.085-.019-.167-.059-.238-.122-.22-.196-.24-.534-.044-.755,1.941-2.182,4.388-1.786,4.491-1.767,.279,.02,.486,.326,.435,.617-.051,.291-.326,.485-.617,.435-.102-.016-1.986-.289-3.511,1.425-.134,.15-.333,.207-.517,.166Z" style="fill:#263238;"></path><path d="M389.127,140.965c-.164,.047-.348,.015-.489-.102-1.869-1.553-3.79-1.04-3.808-1.035-.285,.08-.579-.086-.659-.37-.08-.283,.085-.577,.367-.658h.003c.101-.029,2.485-.667,4.779,1.241,.227,.188,.258,.526,.069,.752-.071,.086-.164,.143-.263,.172Z" style="fill:#263238;"></path><g><g><path d="M372.497,149.766c.221,1.146,1.025,1.952,1.796,1.8,.771-.152,1.217-1.205,.996-2.351-.221-1.146-1.025-1.952-1.796-1.8-.771,.152-1.218,1.205-.997,2.351Z" style="fill:#263238;"></path><path d="M383.387,147.672c.22,1.146,1.025,1.952,1.796,1.8s1.217-1.205,.996-2.351c-.221-1.146-1.025-1.952-1.796-1.8-.771,.152-1.217,1.205-.997,2.351Z" style="fill:#263238;"></path></g><path d="M361.622,157.851c-.106,0-.205-.068-.238-.175-.286-.903-.812-1.72-1.523-2.362-.463-.418-1.201-.926-2.083-.97-.812-.033-1.567,.377-1.839,.99-.057,.126-.205,.182-.33,.127-.126-.056-.183-.204-.127-.33,.358-.807,1.311-1.35,2.321-1.286,1.03,.05,1.87,.625,2.394,1.098,.777,.702,1.353,1.595,1.665,2.583,.042,.131-.031,.272-.163,.313-.025,.008-.05,.012-.075,.012Z" style="opacity:.2;"></path></g><path d="M370.953,154.979c1.518-2.178,5.366-2.231,6.651,.213-1.88-1.827-4.608-1.723-6.651-.213h0Z" style="fill:#ff7c77;"></path></g><g><g><path d="M491.849,391.597l-10.78,.28c-.392,.01-.681,.307-.696,.715l-.315,9.084c-.033,.942,.818,1.811,1.721,1.771,3.752-.166,5.539-.447,10.28-.57,2.917-.076,12.818-.01,16.845-.114,3.939-.102,3.815-4.337,2.1-4.676-7.693-1.521-14.727-3.712-17.489-5.905-.498-.395-1.093-.599-1.667-.585Z" style="fill:#ffbdb7;"></path><path d="M402.544,277.86s72.189-8.55,77.075,13.127c6.571,29.149,13.507,101.677,13.507,101.677h-12.683s-22.573-59.876-25.057-84.289c-14.513,5.085-72.704,14.238-78.639-2.873-4.855-13.998-1.691-27.12-1.691-27.12l27.486-.522Z" style="fill:#ffbdb7;"></path><path d="M402.544,277.86s72.189-8.55,77.075,13.127c6.571,29.149,9.398,40.103,9.398,40.103l-28.128,2.71s-3.019-1.011-5.503-25.424c-14.513,5.085-72.704,14.238-78.639-2.873-4.855-13.998-1.691-27.12-1.691-27.12l27.486-.522Z" style="fill:#263238;"></path></g><polygon points="488.157 337.178 461.068 345.005 457.061 331.89 487.55 324.609 488.157 337.178" style="fill:#263238;"></polygon><path d="M481.08,360.091c0,1.435-1.163,2.598-2.598,2.598s-2.598-1.163-2.598-2.598,1.163-2.598,2.598-2.598,2.598,1.163,2.598,2.598Z" style="fill:#407BFF; opacity:.3;"></path><g style="opacity:.3;"><path d="M510.997,398.087c-7.744-1.521-14.824-3.712-17.604-5.905-.148-.117-.306-.211-.467-.294-.323-3.303-1.67-16.856-3.584-33.485-.839,.685-1.387,1.686-1.229,2.792,.105,.732,.479,1.521,.13,2.163-.378,.694-1.336,.689-2.053,.429-.717-.26-1.44-.689-2.184-.535-1.302,.27-1.695,2.055-1.543,3.447,.153,1.392,.54,2.928-.182,4.103-.92,1.497-3.172,1.375-4.486,.254-1.314-1.121-1.952-2.877-2.626-4.513-.674-1.637-1.541-3.344-3.063-4.118-.834-.424-1.808-.481-2.7-.228,5.336,15.875,10.217,28.847,10.774,30.321-.003,.026-.015,.048-.016,.075l-.317,9.084c-.033,.942,.823,1.811,1.732,1.771,3.776-.166,5.576-.447,10.347-.57,2.936-.076,12.902-.01,16.956-.114,3.965-.102,3.84-4.337,2.114-4.676Z" style="fill:#407BFF;"></path></g><g style="opacity:.3;"><path d="M511.568,398.381c-.16-.149-.349-.252-.564-.294-3.366-.666-6.605-1.46-9.416-2.326-1.205-.371-2.331-.755-3.354-1.149-.341-.131-.671-.263-.988-.396-1.587-.664-2.867-1.35-3.73-2.035-.147-.117-.304-.211-.464-.294-.016-.16-.033-.343-.054-.551-.012-.119-.024-.241-.037-.375-.022-.228-.046-.471-.073-.741l-.02-.201c-.021-.214-.043-.438-.067-.676-.021-.208-.042-.419-.064-.644-.02-.202-.042-.419-.064-.635-.027-.267-.054-.538-.083-.826-.031-.305-.063-.622-.096-.95-.013-.132-.026-.257-.04-.393-.045-.443-.092-.905-.141-1.385-.023-.227-.047-.46-.071-.695-.037-.357-.074-.724-.113-1.1-.024-.232-.048-.461-.072-.7-.053-.51-.107-1.038-.164-1.577-.019-.18-.037-.36-.056-.544-.066-.629-.133-1.272-.203-1.937l-.04-.38c-.061-.58-.124-1.173-.188-1.778l-.06-.566c-.075-.708-.153-1.432-.232-2.171-.018-.169-.037-.34-.055-.51-.071-.662-.144-1.334-.218-2.018-.017-.16-.034-.317-.052-.478-.086-.792-.175-1.602-.265-2.422-.019-.178-.039-.356-.059-.535-.095-.861-.191-1.731-.29-2.618v-.01c-.098-.873-.198-1.762-.299-2.658-.021-.188-.042-.375-.064-.564-.101-.897-.204-1.803-.309-2.721l-.014-.127h0c-.745-6.515-1.576-13.501-2.467-20.529l2.565-.696-.572-12.569-1.516,.344c-1.463-6.039-4.027-16.869-7.882-33.967-4.887-21.677-77.075-13.127-77.075-13.127l-27.486,.522s-3.164,13.122,1.691,27.12c5.935,17.111,64.125,7.958,78.639,2.873,1.394,13.699,2.956,20.028,4.059,22.946l-2.274,.516,3.767,13.116,2.971-.806c1.862,6.126,3.848,12.279,5.775,18.05h0l.085,.255c.116,.346,.231,.69,.346,1.033,.057,.169,.113,.336,.169,.504,.115,.343,.23,.684,.345,1.024,.048,.144,.097,.286,.145,.429,.128,.378,.256,.756,.383,1.13l.013,.039c.632,1.861,1.252,3.665,1.853,5.4l.042,.121c.121,.348,.24,.691,.359,1.033,.044,.126,.088,.253,.132,.379,.117,.336,.233,.667,.348,.997l.098,.281c.124,.354,.246,.703,.368,1.05l.076,.215c.118,.336,.235,.668,.351,.997,.04,.113,.079,.224,.119,.336,.104,.294,.207,.587,.309,.875,.041,.116,.081,.229,.122,.343,.106,.298,.211,.595,.314,.886l.02,.056c.505,1.421,.982,2.751,1.425,3.981,.031,.086,.062,.174,.093,.259,.079,.219,.156,.432,.232,.644,.044,.122,.088,.243,.131,.363,.066,.184,.131,.363,.196,.542,.058,.159,.115,.317,.171,.472l.15,.414c.063,.173,.124,.341,.185,.508,.041,.112,.082,.225,.122,.334,.079,.216,.155,.425,.23,.63l.057,.157c.089,.244,.175,.48,.259,.707l.024,.064c.766,2.088,1.273,3.444,1.431,3.864l-.004,.021c-.002,.019-.011,.034-.011,.053l-.315,9.084c-.004,.118,.006,.234,.028,.348,.109,.569,.523,1.069,1.039,1.296,.206,.091,.429,.137,.654,.127h0c.938-.042,1.753-.09,2.522-.142,1.346-.091,2.552-.19,4.028-.275,.844-.049,1.776-.093,2.874-.128,.274-.009,.559-.017,.855-.025,.729-.019,1.895-.029,3.296-.035,3.153-.014,7.499-.007,10.749-.037,1.084-.01,2.045-.023,2.8-.043,.246-.006,.477-.029,.692-.066,1.075-.184,1.769-.722,2.156-1.369,.232-.389,.355-.817,.383-1.231,.047-.691-.167-1.344-.567-1.716Z"></path></g></g><g><g><path d="M508.212,391.597l-11.464,.28c-.417,.01-.725,.307-.74,.715l-.335,9.084c-.035,.942,.87,1.811,1.83,1.771,3.99-.166,5.891-.447,10.932-.57,3.102-.076,13.631-.01,17.914-.114,4.189-.102,4.058-4.337,2.233-4.676-8.181-1.521-15.662-3.712-18.598-5.905-.529-.395-1.162-.599-1.773-.585Z" style="fill:#ffbdb7;"></path><path d="M413.24,277.86s76.769-8.55,81.966,13.127c6.988,29.149,14.365,101.677,14.365,101.677h-13.488s-24.005-59.876-26.647-84.289c-15.96,3.876-77.599,13.59-83.629-2.873-5.131-14.01-1.798-27.12-1.798-27.12l29.231-.522Z" style="fill:#ffbdb7;"></path><path d="M413.022,273.438s76.987-4.128,82.184,17.549c6.988,29.149,9.994,40.103,9.994,40.103l-29.912,2.71s-3.21-1.011-5.852-25.424c-15.434,5.085-88.036,13.734-94.347-3.377-5.163-13.998-3.814-28.801-3.814-28.801l41.748-2.759Z" style="fill:#263238;"></path></g><polygon points="505.808 337.178 475.341 344.953 471.334 331.837 505.2 324.61 505.808 337.178" style="fill:#263238;"></polygon><g style="opacity:.3;"><path d="M528.583,398.087c-8.181-1.521-15.662-3.712-18.598-5.905-.156-.117-.323-.211-.494-.294-.342-3.303-1.764-16.856-3.786-33.485-.886,.685-1.465,1.686-1.299,2.792,.111,.732,.506,1.521,.137,2.163-.399,.694-1.412,.689-2.169,.429-.757-.26-1.522-.689-2.307-.535-1.375,.27-1.791,2.055-1.63,3.447s.571,2.928-.192,4.103c-.972,1.497-3.351,1.375-4.74,.254-1.389-1.121-2.062-2.877-2.774-4.513-.712-1.637-1.628-3.344-3.236-4.118-.881-.424-1.91-.481-2.853-.228,5.637,15.875,10.794,28.847,11.383,30.321-.003,.026-.016,.048-.017,.075l-.334,9.084c-.035,.942,.87,1.811,1.83,1.771,3.99-.166,5.891-.447,10.932-.57,3.102-.076,13.631-.01,17.914-.114,4.189-.102,4.058-4.337,2.233-4.676Z" style="fill:#407BFF;"></path></g></g><g><path d="M403.906,222.556s33.778-.282,34.615-1.671-.139-4.847,1.883-6.057c2.022-1.21,11.456-6.188,12.114-6.39,.658-.203,1.624,3.691-.175,4.689,0,0,3.621,1.424,2.356,3.943,0,0,2.852,1.34,1.374,3.635,0,0,1.591,1.495,.076,3.957,0,0,.913,2.569-1.324,4.344-2.237,1.775-10.997,3.751-12.618,3.563s-31.847,5.866-31.847,5.866l-6.452-15.878Z" style="fill:#ffbdb7;"></path><path d="M403.906,222.556s33.778-.282,34.615-1.671-.139-4.847,1.883-6.057c2.022-1.21,11.456-6.188,12.114-6.39,.658-.203,1.624,3.691-.175,4.689,0,0,3.621,1.424,2.356,3.943,0,0,2.852,1.34,1.374,3.635,0,0,1.591,1.495,.076,3.957,0,0,.913,2.569-1.324,4.344-2.237,1.775-10.997,3.751-12.618,3.563s-31.847,5.866-31.847,5.866l-6.452-15.878Z" style="opacity:.3;"></path></g><g><g><path d="M627.381,128.216c-18.724,8.065-37.27,16.633-55.721,25.476-18.444,8.862-36.76,18.079-54.945,27.637-18.168,9.602-36.155,19.663-53.966,30.141-17.75,10.616-35.263,21.778-52.391,33.735l1.758,3.252c16.934-12.084,34.29-23.405,51.903-34.193,17.676-10.652,35.544-20.897,53.604-30.69,18.077-9.75,36.295-19.163,54.647-28.225,18.357-9.043,36.825-17.817,55.453-26.082l20.943-8.922v-.465l-21.285,8.335Z" style="fill:#263238;"></path><path d="M613.624,136.077l.321,.814c.259,.657,.939,.951,1.511,.653h0c.571-.298,.827-1.081,.567-1.738l-.321-.814c-.259-.657-.939-.951-1.511-.653h0c-.571,.299-.827,1.081-.567,1.738Z" style="fill:#263238;"></path><path d="M559.555,162.379l.321,.814c.259,.657,.939,.951,1.511,.653h0c.572-.298,.827-1.081,.567-1.738l-.321-.814c-.259-.657-.939-.951-1.511-.653h0c-.571,.298-.827,1.081-.567,1.738Z" style="fill:#263238;"></path><path d="M502.729,192.053l.321,.814c.259,.657,.939,.951,1.511,.653h0c.571-.298,.827-1.081,.567-1.738l-.321-.814c-.259-.657-.939-.951-1.511-.653h0c-.572,.298-.827,1.081-.567,1.738Z" style="fill:#263238;"></path><path d="M446.511,219.106l3.833,9.71c.207,.525,.763,.731,1.198,.443l12.253-8.124c.379-.251,.53-.792,.349-1.25l-3.833-9.71c-.207-.525-.763-.731-1.198-.443l-12.253,8.124c-.379,.251-.53,.792-.349,1.25Z" style="fill:#263238;"></path><path d="M454.159,230.472c-.21-.078-.383-.255-.475-.486l-2.441-6.183h0c-.168-.425-.029-.922,.323-1.155l7.803-5.173c.192-.128,.423-.157,.632-.077,.21,.078,.384,.255,.475,.486l2.44,6.182c.168,.426,.029,.923-.322,1.155l-7.802,5.173c-.137,.091-.293,.131-.448,.118-.062-.005-.124-.018-.184-.041Zm5.454-12.511l-7.802,5.173c-.133,.088-.186,.276-.122,.437l2.441,6.183c.035,.089,.099,.154,.18,.184,.082,.029,.166,.018,.239-.029l7.803-5.174c.133-.088,.185-.275,.122-.437l-2.44-6.183c-.035-.089-.099-.154-.18-.184-.023-.008-.047-.014-.071-.016-.058-.005-.116,.011-.168,.045Zm-8.153,5.726h0Z" style="fill:#263238;"></path><path d="M447.444,216.267l.314,.795c.096,.243,.337,.331,.539,.197l8.274-5.511c.202-.134,.288-.44,.192-.683l-.314-.795c-.096-.243-.337-.331-.539-.197l-8.274,5.511c-.202,.134-.288,.44-.192,.683Z" style="fill:#263238;"></path></g><path d="M460.031,218.116c46.125-25.522,92.574-50.508,139.987-73.571,15.907-7.502,31.692-15.375,48.524-20.676l.581-.175,.002,.617c.117,61.96-.171,138.964-.2,201.265l-.258,67.088-.258-67.088c-.064-33.472-.13-100.721-.189-134.177-.042-22.362-.066-44.725-.012-67.088l.582,.442c-16.725,5.216-32.585,13.061-48.438,20.486-47.456,22.939-93.951,47.828-140.321,72.877h0Z" style="fill:#263238;"></path></g><g><path d="M420.853,272.479s-5.108-31-18.761-59.015c-7.147-14.665-20.117-29.345-20.117-29.345l-40.472-11.865s-26.842,32.917,10.043,34.939c0,0,5.083,54.007,8.83,68.428,1.363,5.247,10.74,6.681,10.74,6.681" style="fill:#407BFF;"></path><path d="M365.462,218.881s17.511,47.703,38.301,48.753c1.128,.057,15.523-2.821,15.523-2.821l-3.95-16.356-11.812-6.32s-15.929-29.719-21.89-36.069c-12.264-13.065-19.122,7.535-16.172,12.814Z" style="opacity:.3;"></path><path d="M351.546,207.194s-1.118-16.415,14.78-21.941c0,0-18.339-.002-20.69,21.252l5.91,.689Z" style="opacity:.3;"></path></g><path d="M430.807,234.058s15.311-.717,16.148-2.106c.836-1.389-.139-4.847,1.883-6.057,2.022-1.21,11.456-6.188,12.114-6.39,.658-.203,1.624,3.691-.175,4.689,0,0,3.621,1.425,2.356,3.943,0,0,2.852,1.34,1.374,3.635,0,0,1.591,1.495,.076,3.957,0,0,.913,2.569-1.324,4.344s-10.997,3.751-12.618,3.563c-1.621-.188-17.878,3.388-17.878,3.388l-1.955-12.966Z" style="fill:#ffbdb7;"></path><path d="M366.408,206.68s19.567,49.544,37.032,45.861c22.958-4.841,42.461-8.227,42.461-8.227l1.055-12.362-43.432-.169s-15.929-29.719-21.89-36.069c-12.264-13.065-18.176,5.687-15.226,10.966Z" style="fill:#ffbdb7;"></path><path d="M403.523,231.783s-4.857,3.426-2.506,9.696l5.486-9.696h-2.98Z" style="opacity:.3;"></path><path d="M367.284,188.823s-11.6,3.791-7.436,21.382c4.164,17.591,11.256,28.784,11.256,28.784l30.586-13.146s-18.744-40.592-34.406-37.02Z" style="fill:#263238;"></path></g></g><g id="freepik--Character_1--inject-613"><g><g><path d="M318.595,237.134s-4.355-.272-7.302,5.117c-2.946,5.39-15.135,28.708-14.107,33.946,1.702,8.67,10.615,6.581,10.615,6.581l10.794-45.644Z" style="fill:#ffbdb7;"></path><path d="M298.888,272.229s.605,4.843,3.542,5.056,7.235-2.171,7.235-2.171l.17-1.536-10.642-2.72-.305,1.372Z" style="opacity:.2;"></path></g><g id="freepik--freepik--Character--inject-6--inject-613"><path d="M301.169,371.672l-6.931-5.632c-.435-8.69-1.11-21.122-1.624-25.9-.538-5.002-4.499-16.789-4.499-16.789l15.062-6.677-12.672-17.731s-16.186,8.627-19.094,12.491c-2.907,3.864-1.69,8.511,0,14.772l14.823,43.182c.515,1.904,.91,4.493,.93,4.732,.304,2.743-.701,6.679-3.504,11.953-.954,1.943,2.431,3.918,4.571,1.666l7.85-8.258c2.567-2.7,3.543-3.727,5.605-5.896,.073-.074,.132-.16,.174-.257,.239-.545-.071-1.286-.692-1.657Z" style="fill:#ffbdb7;"></path><path d="M295.845,321.69c6.016-.843,19.506-6.235,28.918-6.716l10.954-.539c24.376-1.281-27.874-23.547-27.874-23.547,0,0-9.338,2.579-24.536,11.184,6.623,6.37,7.583,14.411,12.538,19.618Z" style="fill:#407BFF;"></path><path d="M354.434,291.279s-.461,5.971-.355,12.539c.146,9.108-1.878,14.235-18.037,14.235-29.586,0-26.833-15.924-24.332-29.962l42.725,3.188Z" style="fill:#407BFF;"></path><path d="M319.914,367.968h0c-.427-8.666-1.166-22.684-1.72-27.827-.539-5.002-4.499-16.789-4.499-16.789l15.062-6.677-12.672-17.731s-16.186,8.627-19.094,12.491c-2.908,3.864-1.69,8.511,0,14.772,1.412,5.23,10.753,32.924,14.225,43.18,.025,.827-.216,1.252-.415,1.475-1.778,2.11-4.738,5.401-10.161,8.299-1.909,1.02-1.164,4.462,1.942,4.462l18.666-4.162c.103,.012,.207-.015,.306-.051,.56-.202,.884-.938,.724-1.643l-2.364-9.799Z" style="fill:#ffbdb7;"></path><path d="M316.449,325.143c9.115-1.468,19.523-5.167,28.313-7.99,2.334-.767,7.892-12.425,7.319-16.393-1.989-13.937-30.583-8.392-30.583-8.392,0,0-13.077,9.745-19.232,13.462l14.183,19.314Z" style="fill:#407BFF;"></path><circle cx="284.704" cy="343.683" r="2.4" style="fill:#407BFF; opacity:.3;"></circle><path d="M296.081,379.481c2.567-2.7,3.543-3.727,5.605-5.896,.073-.074,.132-.16,.174-.257,.239-.545-.071-1.286-.692-1.657l-6.931-5.632c-.27-5.395-.633-12.229-.992-17.782-.438-.202-.877-.332-1.303-.332-2.804,0-1.122,7.011-2.243,8.974-1.122,1.963-2.664,2.384-5.188-2.945-1.392-2.94-3.508-4.083-5.127-4.52l6.849,19.952c.515,1.904,.91,4.493,.93,4.732,.304,2.743-.701,6.679-3.504,11.953-.954,1.943,2.431,3.918,4.571,1.666l7.85-8.258Z" style="fill:#407BFF; opacity:.3;"></path><path d="M310.709,378.39c-4.414-.963-4.351-3.05-4.351-3.05l-.074,.047c-1.511,1.25-3.346,2.545-5.644,3.773-1.909,1.02-1.164,4.462,1.942,4.462l18.666-4.162c.103,.012,.207-.015,.306-.051,.56-.202,.884-.938,.724-1.643l-.991-4.107c-1.366,.06-3.135,.293-4.8,.959-3.21,1.284-1.364,4.735-5.778,3.772Z" style="fill:#407BFF; opacity:.3;"></path></g><g><path d="M354.817,296.449c-.957-4.283-.732-11.273-.732-11.273,0-15.619-.595-34.94-1.181-40.345-.23-2.119,.729-5.069-4.761-6.621-5.441-1.538-15.142-1.482-29.547-1.076,0,0-2.473,6.459-6.597,17.919,0,0-2.211,11.587-3.089,19.342l-2.324,17.583c3.107,4.822,20.042,8.51,48.232,4.47Z" style="fill:#407BFF;"></path><path d="M354.817,296.449c-.957-4.283-.732-11.273-.732-11.273,0-15.619-.595-34.94-1.181-40.345-.23-2.119,.729-5.069-4.761-6.621-5.441-1.538-15.142-1.482-29.547-1.076,0,0-2.473,6.459-6.597,17.919,0,0-2.211,11.587-3.089,19.342l-2.324,17.583c3.107,4.822,20.042,8.51,48.232,4.47Z" style="fill:#fff; opacity:.4;"></path><g><g style="opacity:.4;"><path d="M319.103,264.695c-2.425-1.241-3.946-4.162-3.335-6.817,.611-2.655,3.463-4.658,6.132-4.11,2.366,.486,4.061,3.914,4.106,6.726,.56-2.583,3.943-5.546,6.373-5.508,2.767,.043,5.165,2.77,4.915,5.526-.249,2.756-3.031,4.996-5.783,4.714,2.561,.545,4.368,3.418,3.751,5.963-.617,2.545-3.54,4.27-6.066,3.582-2.526-.689-4.169-3.659-3.41-6.165-.866,2.201-2.472,4.279-4.742,4.942-2.27,.664-5.143-.636-5.531-2.969-.396-2.384,1.698-4.38,3.589-5.885Z" style="fill:#fff;"></path></g><circle cx="325.437" cy="264.3" r="2.432" style="fill:#fff;"></circle></g></g><g><path d="M307.319,217.903c-.163,0-.313-.107-.36-.272-.057-.199,.058-.407,.257-.463,4.791-1.371,8.999-4.614,11.544-8.897,.105-.178,.335-.237,.514-.131,.178,.105,.237,.336,.131,.514-2.642,4.446-7.01,7.812-11.983,9.235-.034,.01-.069,.015-.103,.015Z" style="fill:#263238;"></path><g><g><path d="M319.263,207.285l6.162,24.275c-6.373-.387-12.415-4.321-15.348-9.992,4.295-3.797,7.513-8.8,9.186-14.283Z" style="fill:#263238;"></path><path d="M340.414,225.858c-1.425,2.778-1.019,2.526-1.289,5.636-.292,3.372-.676,7.916-.676,7.916-.497,.711-4.474,2.692-7.797,3.34-5.548,1.081-7.271-.529-6.061-4.902,.879-3.175,.099-5.75-2.192-7.78-5.185-4.698,18.015-4.211,18.015-4.211Z" style="fill:#ffbdb7;"></path><path d="M340.414,225.858c-1.425,2.778-1.806,3.247-2.659,6.25-3.339,4.386-8.328,5.038-12.985,4.992,.341-1.868,.223-5.28-2.346-7.076-5.21-4.653,17.99-4.166,17.99-4.166Z" style="isolation:isolate; opacity:.2;"></path><path d="M326.043,195.777s-6.858,3.341-6.206,10.985c.652,7.645,13.813-4.459,13.813-4.459l-7.607-6.526Z" style="fill:#263238;"></path><path d="M350.167,217.247c-5.22,8.755-7.759,14.169-15.254,16.193-11.282,3.079-21.776-7.435-19.624-17.719,1.886-9.27,10.113-22.005,21.923-20.569,11.81,1.437,18.155,13.364,12.954,22.095Z" style="fill:#ffbdb7;"></path><path d="M333.105,206.751c-.04-.118-.047-.244-.019-.365,.131-.305,.481-.452,.79-.331,1.812,.664,3.179,2.181,3.652,4.053,.065,.32-.141,.632-.461,.697h-.006c-.322,.057-.632-.148-.706-.466h0c-.413-1.483-1.527-2.668-2.98-3.173-.142-.097-.239-.246-.27-.414Z" style="fill:#263238;"></path><path d="M319.82,203.036c-.102-.07-.182-.169-.227-.285-.08-.323,.114-.649,.435-.734,1.857-.52,3.852-.101,5.342,1.123,.245,.216,.268,.589,.053,.834l-.013,.014h0c-.229,.233-.599,.25-.848,.04h0c-1.207-.956-2.806-1.259-4.279-.811-.173,.008-.341-.058-.462-.181Z" style="fill:#263238;"></path><path d="M324.384,212.867l-3.622,.981s.249,1.411,2.743,2.786l.88-3.768Z" style="fill:#ff7c77;"></path><path d="M333.618,197.832s6.686-4.462,8.862-3.705c2.176,.757,8.755,4.05,11.46,11.35,2.705,7.3,1.035,20.457,.705,22.553-.779,4.949-1.496,11.532-1.496,11.532l-15.537-2.35c-1.491-4.701,3.793-16.031,2.372-17.918-3.817-5.066-2.958-8.855-3.912-11.604-1.04-2.997-.873-9.368-.873-9.368l-9.457,.144-4.078,2.516s1.601-2.465,4.094-5.304,10.918-3.577,13.986-2.502c3.068,1.075,2.426,2.045,2.426,2.045l-8.552,2.611Z" style="fill:#263238;"></path><path d="M339.542,219.708s4.319-4.389,6.398-1.669c2.079,2.719-1.887,11.308-5.932,9.734s-3.398-5.94-.465-8.064Z" style="fill:#ffbdb7;"></path><g><path d="M322.497,219.011c-.147,1.282,.603,3.599,1.01,4.406l.802,.002c3.604-.003,5.288-1.204,6.058-2.542,.548-1.046,.713-2.252,.467-3.407-1.923,1.153-5.267,1.419-7.116,1.492-.742,.064-1.221,.048-1.221,.048Z" style="fill:#263238;"></path><path d="M323.739,218.988l.335,1.301c3.413-.02,5.818-.491,6.888-1.524,.018-.426-.024-.853-.125-1.267-1.905,1.151-5.249,1.417-7.099,1.49Z" style="fill:#fff;"></path><path d="M324.312,223.446c3.604-.003,5.288-1.205,6.058-2.542-1.381,.029-2.745,.304-4.029,.81-.839,.354-1.548,.958-2.029,1.731Z" style="fill:#d5504d;"></path></g><path d="M341.109,225.499c-.088,0-.174-.047-.219-.13-.066-.121-.022-.273,.1-.339,1.56-.852,2.781-2.854,2.114-4.476-.052-.128,.009-.274,.136-.327,.129-.05,.274,.009,.327,.136,.793,1.932-.595,4.154-2.338,5.105-.038,.021-.079,.031-.12,.031Z" style="opacity:.2;"></path></g><path d="M333.117,213.913c-.324,.961-1.112,1.574-1.744,1.344s-.84-1.177-.532-2.138c.307-.961,1.12-1.566,1.752-1.344,.632,.222,.823,1.176,.524,2.138Z" style="fill:#263238;"></path><path d="M322.8,210.604c-.333,.961-1.12,1.574-1.744,1.344-.624-.23-.84-1.185-.532-2.146s1.112-1.557,1.744-1.344,.848,1.185,.532,2.146Z" style="fill:#263238;"></path></g><path d="M354.703,239.402c-.023,0-.047-.002-.072-.007-.203-.039-.336-.236-.297-.439,1.895-9.809,1.226-25.352-.613-32.178-.054-.2,.065-.406,.265-.46,.202-.055,.406,.065,.46,.265,1.86,6.904,2.538,22.611,.625,32.516-.035,.179-.192,.304-.368,.304Z" style="fill:#263238;"></path></g><g><g><g><path d="M216.963,127.922c10.223,13.002,20.125,26.293,29.852,39.745,9.715,13.462,19.201,27.127,28.461,40.985,9.232,13.883,18.156,28.022,26.793,42.39,8.541,14.443,16.701,29.184,24.278,44.342l-2.512,1.637c-7.39-15.174-15.377-29.967-23.753-44.479-8.474-14.44-17.242-28.665-26.323-42.641-9.109-13.953-18.45-27.72-28.021-41.288-9.582-13.557-19.348-26.965-29.426-40.073l-11.473-14.473,.18-.331,11.944,14.187Z" style="fill:#263238;"></path><path d="M223.725,138.855l-.544,.456c-.439,.368-1.038,.314-1.33-.12h0c-.292-.434-.171-1.091,.269-1.459l.544-.456c.44-.368,1.038-.314,1.33,.12h0c.292,.434,.171,1.091-.269,1.459Z" style="fill:#263238;"></path><path d="M252.079,178.549l-.544,.456c-.44,.368-1.038,.314-1.33-.12h0c-.292-.434-.171-1.091,.269-1.459l.544-.456c.44-.368,1.038-.314,1.33,.12h0c.292,.434,.171,1.091-.269,1.459Z" style="fill:#263238;"></path><path d="M281.092,221.715l-.544,.456c-.439,.368-1.038,.314-1.33-.12h0c-.292-.434-.171-1.091,.269-1.459l.544-.456c.439-.368,1.038-.314,1.33,.12h0c.292,.434,.171,1.091-.269,1.459Z" style="fill:#263238;"></path><path d="M310.687,262.775l-6.493,5.437c-.351,.294-.827,.225-1.025-.148l-5.588-10.538c-.173-.326-.071-.77,.235-1.027l6.494-5.437c.351-.294,.827-.225,1.025,.148l5.587,10.538c.173,.326,.071,.77-.235,1.026Z" style="fill:#263238;"></path><path d="M300.685,267.873c-.115-.051-.211-.14-.274-.258l-3.558-6.71c-.161-.302-.067-.71,.218-.949l4.134-3.462c.155-.13,.347-.189,.527-.163,.18,.024,.333,.134,.421,.3l3.558,6.71c.16,.302,.067,.71-.217,.948h0l-4.135,3.462c-.155,.13-.347,.189-.527,.163-.052-.007-.101-.022-.147-.042Zm1.003-11.086c-.018-.008-.036-.013-.056-.016-.069-.01-.14,.012-.199,.062l-4.135,3.462c-.108,.09-.143,.244-.082,.358l3.558,6.711c.034,.062,.089,.102,.159,.113,.069,.01,.14-.012,.199-.062l4.135-3.462c.108-.09,.143-.244,.082-.359l-3.558-6.71c-.024-.044-.059-.078-.102-.097Zm3.692,7.335l.005,.002-.005-.002Z" style="fill:#263238;"></path><path d="M311.121,260.39l-.532,.445c-.162,.136-.369,.105-.46-.069l-3.763-7.134c-.092-.174-.034-.425,.128-.561l.532-.445c.162-.136,.369-.105,.46,.069l3.763,7.134c.092,.174,.034,.425-.128,.561Z" style="fill:#263238;"></path></g><path d="M301.432,256.832c-23.393-35.789-46.903-71.536-71.855-106.262-8.423-11.425-16.697-23.162-26.594-33.347l.779-.357c1.959,47.767,1.955,119.967,2.592,168.4l.588,84.2,.286,84.201c-.72-78.131-1.903-217.996-3.259-294.682-.225-12.378-.59-31.003-1.172-43.258,10.334,10.485,18.738,22.565,27.406,34.391,24.855,34.815,48.278,70.624,71.23,106.713h0Z" style="fill:#263238;"></path></g><g><path d="M301.451,263.77s6.44-.022,7.64,1.286c1.2,1.308-1.25,1.954-1.25,1.954,0,0,2.739-.545,3.128,.586,.467,1.358-2.103,2.024-2.103,2.024,0,0,2.255-.354,2.533,.676,.289,1.068-2.558,2.025-2.558,2.025,0,0,1.635,.051,1.423,.877-.212,.825-6.214,2.974-8.363,2.403-2.149-.571-4.674-8.37-4.817-10.188-.046-.582,.702-4.297,2.226-5.922l1.95,4.276,.191,.002Z" style="fill:#ffbdb7;"></path><path d="M307.876,267.14l-.011,.002-4.82,.722c-.065,.009-.128-.042-.14-.115-.013-.073,.032-.142,.094-.15l4.821-.722c.065-.01,.128,.042,.14,.114,.012,.069-.025,.133-.083,.148Z" style="opacity:.2;"></path><path d="M308.767,269.785h-.003l-4.575,1.063c-.064,.015-.129-.032-.146-.103-.017-.073,.014-.129,.084-.158l4.575-1.062c.064-.015,.129,.032,.147,.104,.017,.071-.019,.141-.081,.157Z" style="opacity:.2;"></path><path d="M308.721,272.493l-3.377,.886c-.063,.017-.13-.028-.149-.1-.019-.071,.017-.143,.08-.16l3.377-.886c.063-.017,.13,.028,.149,.1,.019,.072-.017,.143-.08,.16Z" style="opacity:.2;"></path></g></g><g><path d="M349.618,239.027s4.43,.155,5.84,7.996c1.41,7.841,4.277,23.479-1.448,27.901-5.725,4.422-30.607,7.031-30.607,7.031l-3.803-7.279,25.278-9.41s-5.151-17.432-2.554-22.191c2.596-4.759,7.294-4.048,7.294-4.048Z" style="fill:#ffbdb7;"></path><path d="M329.866,270.642s-9.315,4.585-10.266,4.035c-.95-.55-1.503-2.92-3.099-2.976-1.595-.056-8.819,.079-9.275,.174-.457,.095,.244,2.721,1.638,2.723,0,0-1.681,2.03-.107,3.109,0,0-1.253,1.728,.374,2.605,0,0-.454,1.407,1.25,2.372,0,0,.299,1.822,2.206,2.143s7.749-1.374,8.649-2.016c.9-.642,11.711-3.84,11.711-3.84l-3.083-8.329Z" style="fill:#ffbdb7;"></path></g></g></g><g id="freepik--Water--inject-613"><g><path d="M347.396,376.663h47.44c.965,0,.967-1.5,0-1.5h-47.44c-.965,0-.967,1.5,0,1.5h0Z" style="fill:#407BFF;"></path><path d="M401.715,376.663h8.317c.965,0,.967-1.5,0-1.5h-8.317c-.965,0-.967,1.5,0,1.5h0Z" style="fill:#407BFF;"></path><path d="M11.765,381.802H741.468c.965,0,.967-1.5,0-1.5H11.765c-.965,0-.967,1.5,0,1.5h0Z" style="fill:#407BFF;"></path></g><g style="opacity:.3;"><path d="M611.653,381.268l-22.768-.158c-6.791-.085-13.598-.17-20.356,.504-1.234,.123-2.729,.486-3.051,1.683-.232,.863,.331,1.782,1.093,2.248,.763,.467,1.681,.585,2.568,.693,5.35,.65,10.7,1.301,16.05,1.951,.642,.078,1.314,.168,1.838,.547s.823,1.15,.471,1.693c-.219,.338-.621,.501-1.002,.631-7.409,2.526-15.921-.235-23.194,2.659-.538,.214-1.132,.541-1.232,1.111-.086,.489,.254,.973,.689,1.213,.435,.24,.946,.288,1.441,.329,10.642,.888,21.461,.639,31.847-1.847,1.014-.243,2.044-.515,2.919-1.084,.875-.569,1.582-1.49,1.636-2.532,.061-1.176-.716-2.258-1.674-2.943-.958-.685-2.094-1.064-3.17-1.543-.616-.274-1.325-.822-1.111-1.461,.19-.571,.947-.664,1.549-.654,4.409,.07,8.818,.141,13.228,.211,.764,.012,1.55,.021,2.265-.252,.714-.273,1.349-.897,1.398-1.659,.049-.763-.696-1.542-1.433-1.34Z" style="fill:#407BFF;"></path></g><ellipse cx="147.656" cy="454.131" rx="12.433" ry="3.347" style="fill:#407BFF; opacity:.3;"></ellipse><g style="opacity:.3;"><path d="M543.406,434.423l-117.722-.916c-99.577-1.234-201.969-2.54-302.807-.706-6.138,9.544,149.911,3.326,218.643,14.311-36.967,1.493-59.814-2.471-96.781-.978,40.854,9.628,97.605,8.959,153.253,6.23,3.515-.172,7.176-.369,10.159-1.315,2.983-.945,5.026-2.885,3.664-4.514-1.396-1.67-5.437-2.262-8.971-2.652-11.54-1.274-23.079-2.547-34.619-3.821,21.803,.455,45.103,.439,68.564,.16,23.072-.275,110.9-.027,106.618-5.799Z" style="fill:#407BFF;"></path></g><path d="M639.804,390.775c-24.237,4.695,6.41,5.78,6.41,5.78-17.974-1.774-6.41-5.78-6.41-5.78Z" style="fill:#407BFF; opacity:.3;"></path><path d="M655.736,390.775c24.237,4.695-6.41,5.78-6.41,5.78,17.974-1.774,6.41-5.78,6.41-5.78Z" style="fill:#407BFF; opacity:.3;"></path><path d="M199.258,448.351c-24.237,4.695,6.41,5.78,6.41,5.78-17.974-1.774-6.41-5.78-6.41-5.78Z" style="fill:#407BFF; opacity:.3;"></path><path d="M215.191,448.351c24.237,4.695-6.41,5.78-6.41,5.78,17.974-1.774,6.41-5.78,6.41-5.78Z" style="fill:#407BFF; opacity:.3;"></path></g></svg>
