<?xml version="1.0" standalone="no"?><!DOCTYPE svg PUBLIC "-//W3C//DTD SVG 1.1//EN" "http://www.w3.org/Graphics/SVG/1.1/DTD/svg11.dtd"><svg t="1735459994185" class="icon" viewBox="0 0 1024 1024" version="1.1" xmlns="http://www.w3.org/2000/svg" p-id="5973" xmlns:xlink="http://www.w3.org/1999/xlink" width="200" height="200"><path d="M550.5 107.8l105.1 213c6.3 12.7 18.4 21.5 32.4 23.5l235.1 34.2c35.3 5.1 49.3 48.5 23.8 73.3l-170 165.8c-10.1 9.9-14.8 24.1-12.4 38l40.2 234.1c6 35.1-30.8 61.9-62.4 45.3L532 824.6c-12.5-6.6-27.5-6.6-40 0L281.7 935.1c-31.5 16.6-68.4-10.2-62.4-45.3l40.2-234.1c2.4-13.9-2.2-28.2-12.4-38L77 451.8c-25.5-24.9-11.4-68.2 23.8-73.3l235.1-34.2c14-2 26.1-10.8 32.4-23.5l105.1-213c15.8-32 61.4-32 77.1 0z" fill="#FF0000" p-id="5974"></path></svg>