<?xml version="1.0" standalone="no"?><!DOCTYPE svg PUBLIC "-//W3C//DTD SVG 1.1//EN" "http://www.w3.org/Graphics/SVG/1.1/DTD/svg11.dtd"><svg t="1668906710531" class="icon" viewBox="0 0 1024 1024" version="1.1" xmlns="http://www.w3.org/2000/svg" p-id="1117" width="128" height="128" xmlns:xlink="http://www.w3.org/1999/xlink"><path d="M699.522133 361.098667a25.856 25.856 0 1 0 26.186667 25.536 26.133333 26.133333 0 0 0-26.186667-25.536z m41.888 425.504H271.4048C224.930133 786.602667 202.6688 764.341333 202.6688 719.829333V398.410667a79.242667 79.242667 0 0 1 24.224-57.6 77.333333 77.333333 0 0 1 57.6-22.250667h15.712a46.826667 46.826667 0 0 0 21.6-8.533333 52.405333 52.405333 0 0 0 15.061333-18.986667l18.325334-37.333333A37.056 37.056 0 0 1 370.2528 238.656a35.2 35.2 0 0 1 21.6-3.274667h227.808a41.664 41.664 0 0 1 21.6 3.274667c6.549333 4.576 11.733333 7.2 15.061333 14.4l18.325334 37.973333a37.642667 37.642667 0 0 0 15.061333 18.325334 39.690667 39.690667 0 0 0 21.6 9.162666H726.402133a79.765333 79.765333 0 0 1 58.261334 22.250667 81.226667 81.226667 0 0 1 23.562666 57.6v321.461333c0 44.512-20.266667 66.773333-66.773333 66.773334z m-234.346666-425.504A178.133333 178.133333 0 1 0 689.0688 539.157333a180.373333 180.373333 0 0 0-181.984-178.058666z m0 319.456A141.109333 141.109333 0 1 1 651.735467 539.157333a143.061333 143.061333 0 0 1-144.672 141.397334z m0 0" fill="#1296db" p-id="1118"></path></svg>