<svg xmlns="http://www.w3.org/2000/svg" xmlns:xlink="http://www.w3.org/1999/xlink" width="122" height="120" viewBox="0 0 122 120" fill="none"><defs><linearGradient id="linear_0" x1="50%" y1="100%" x2="49.999999999999986%" y2="3.0616169978683834e-15%" gradientUnits="objectBoundingBox"><stop offset="0" stop-color="#3CA5FF" stop-opacity="1" /><stop offset="1" stop-color="#1C6CFE" stop-opacity="1" /></linearGradient></defs><g opacity="1" transform="translate(0 0)  rotate(0 60 60)"><g opacity="1" transform="translate(0 0)  rotate(0 60 60)"><g opacity="1" transform="translate(0 0)  rotate(0 60 60)"><g opacity="1" transform="translate(0 0)  rotate(0 60.55555555555556 60)"><g opacity="1" transform="translate(0.4671605572689765 16.251212833897934)  rotate(0 57.77777777777778 50.55555555555556)"><g opacity="1" transform="translate(8.88888888888889 1.1111111111111112)  rotate(0 51.66666666666667 42.22222222222222)"><path id="路径" fill-rule="evenodd" fill="url(#linear_0)" transform="translate(0 1.1111111111111112)  rotate(0 32.77777777777778 41.66666666666667)" opacity="1" d="M33.26,0.05C32.73,0.07 32.17,0.12 31.58,0.18C29.57,0.18 27.55,0.55 25.53,1.3C22.02,2.39 19.24,4.08 17.2,6.36C15.15,8.63 13.61,11.19 12.57,14.05C11.54,16.9 10.89,19.9 10.62,23.04C10.35,26.18 10.22,29.13 10.22,31.9C10.22,35.23 10.49,37.97 11.02,40.07C11.55,42.17 12.13,43.83 12.78,45.03C13.52,46.48 14.37,47.54 15.32,48.23L22.18,49.36C22.23,50.11 22.23,50.82 22.18,51.48C22.13,52.13 21.95,52.78 21.66,53.38C21.37,53.98 20.95,54.58 20.38,55.19C19.83,55.8 19.04,56.44 18.03,57.13C16.65,58.12 15.05,58.85 13.21,59.33C11.38,59.83 9.61,60.4 7.91,61.08C6.21,61.73 4.71,62.61 3.41,63.71C2.1,64.8 2.09,65.23 0.69,68.12C-0.69,71 0.69,83.33 0.69,83.33L60.382418849123134,83.33333333333334C62.089019384901235,83.3541896029415 63.58572642567807,82.19821995199533 63.99685786146126,80.54175041855655C65.07,75.98 66.61,67.18 63.27,64.64C60.44,62.48 54.77,60.18 53.75,59.89C52.18,59.46 49.52,58.58 48.25,58C45.69,56.84 44.05,55.51 43.31,53.98C42.56,52.45 42.24,50.91 42.35,49.36L50.24,47.98C51.09,46.71 51.86,45.27 52.55,43.65C53.14,42.27 53.71,40.63 54.27,38.73C54.82,36.82 55.16,34.66 55.26,32.24C55.37,30.68 55.3,28.8 55.06,26.58C54.82,24.36 54.38,22.06 53.75,19.67C53.11,17.28 52.27,14.91 51.24,12.58C50.2,10.24 48.91,8.13 47.37,6.27C45.83,4.39 44.02,2.88 41.95,1.73C39.88,0.57 37.54,0 34.93,0C34.35,0 33.79,0.02 33.26,0.05Z " /><path id="形状" fill-rule="evenodd" style="fill:#2B99FF" transform="translate(37.77777777777778 0)  rotate(0 32.73749634787488 42.12033959273823)" opacity="1" d="M11.91,35.33C12.29,35.86 12.64,36.27 12.97,36.55C13.36,36.85 13.74,37.06 14.12,37.17C14.39,38.17 14.66,39.1 14.93,39.97C15.21,40.74 15.51,41.48 15.83,42.2C16.16,42.95 16.55,43.51 16.98,43.91C17.91,44.74 18.75,45.54 19.52,46.33C20.28,47.12 20.72,48.19 20.83,49.53C20.88,50.47 20.91,51.31 20.91,52.08C20.91,52.84 20.78,53.56 20.5,54.26C20.23,54.97 19.79,55.67 19.19,56.37C18.59,57.06 17.72,57.8 16.57,58.56C15.1,59.55 13.41,60.31 11.5,60.84C10.45,61.13 9.42,61.45 8.41,61.78C7.98,61.61 2.29,63.34 1.15,66.52C-1.4,73.69 1.7,84.24 1.7,84.24L60.84869107152295,84.24067918547647C62.787981900215165,84.26957362194145 64.45012802477008,82.8606729174953 64.73930024964773,80.94284517990579C65.4,76.07 65.98,67.27 62.02,64.92C56.47,61.62 54.87,61.48 53.27,61.01C53.27,61.01 50,59.95 48.81,59.44C47.29,58.79 46.1,58.07 45.25,57.24C44.41,56.42 43.78,55.57 43.37,54.66C42.96,53.75 42.73,52.84 42.67,51.93C42.62,51.03 42.67,50.14 42.83,49.27C43.06,47.81 43.5,46.77 44.14,46.16C44.8,45.54 45.65,44.8 46.68,43.91C47.12,43.51 47.52,42.95 47.87,42.2C48.22,41.48 48.54,40.73 48.81,39.97C49.09,39.1 49.36,38.17 49.63,37.17C50.17,36.99 50.69,36.67 51.18,36.21C51.62,35.79 52.01,35.23 52.37,34.5C52.72,33.76 52.96,32.79 53.07,31.56C53.17,30.62 53.02,29.2 53.02,29.2C52.88,28.55 52.71,28.02 52.49,27.61C52.27,27.15 51.97,26.76 51.59,26.48C51.59,24.08 51.46,21.71 51.18,19.38C50.91,17.33 50.44,15.19 49.79,12.93C49.14,10.68 48.1,8.62 46.68,6.75C46.08,5.93 45.25,5.11 44.18,4.3C43.12,3.47 41.91,2.75 40.55,2.11C39.18,1.46 37.73,0.95 36.17,0.57C34.61,0.19 33.05,0 31.46,0C30.21,0 28.91,0.1 27.58,0.31C26.24,0.51 24.91,0.91 23.56,1.49C22.23,2.08 20.92,2.88 19.64,3.91C18.36,4.93 17.2,6.25 16.16,7.89C15.02,9.59 14.16,11.52 13.59,13.67C13.01,15.84 12.62,17.85 12.4,19.73C12.13,21.94 12.01,24.16 12.07,26.39C11.58,26.97 11.23,27.58 11.01,28.23C10.79,28.81 10.64,29.52 10.56,30.33C10.48,31.15 10.6,32.05 10.93,33.05C11.2,34.04 11.53,34.8 11.91,35.33Z " /></g></g></g></g></g></g></svg>