<svg xmlns="http://www.w3.org/2000/svg" xmlns:xlink="http://www.w3.org/1999/xlink" width="120" height="120" viewBox="0 0 120 120" fill="none"><defs><linearGradient id="linear_0" x1="108.78169656672094%" y1="116.27984548847654%" x2="6.802004417673182%" y2="0%" gradientUnits="objectBoundingBox"><stop offset="0" stop-color="#FD8802" stop-opacity="1" /><stop offset="1" stop-color="#FFCE24" stop-opacity="1" /></linearGradient><filter id="filter_6" x="0" y="0" width="78" height="78" filterUnits="userSpaceOnUse" color-interpolation-filters="sRGB"></filter><filter id="filter_8" x="40" y="0" width="38" height="38" filterUnits="userSpaceOnUse" color-interpolation-filters="sRGB"></filter></defs><g opacity="1" transform="translate(0 0)  rotate(0 60 60)"><g opacity="1" transform="translate(0 0)  rotate(0 60 60)"><g opacity="1" transform="translate(21 21)  rotate(0 39 39)"><path id="Rectangle Copy 6" fill-rule="evenodd" fill="url(#linear_0)" transform="translate(0 0)  rotate(0 39 39)" opacity="1" d="M5.510910596163091e-16,69C0,71.3869484085559 0.9482115632887584,73.67613362464661 2.6360389693210706,75.36396103067892C4.323866375353383,77.05178843671123 6.613051591444102,78 8.999999999999998,78L69,78C73.97056274847714,78 78,73.97056274847714 78,69L78,12.000000000000002C78,8.81740212192547 76.73571791561498,5.765155167137841 74.48528137423857,3.514718625761427C72.23484483286215,1.2642820843850107 69.18259787807452,-1.7763568394002505e-15 66,-1.7763568394002505e-15L9.000000000000002,0C6.613051591444106,-1.7763568394002505e-15 4.323866375353384,0.9482115632887584 2.6360389693210706,2.6360389693210715C0.9482115632887584,4.323866375353385 -1.7763568394002505e-15,6.613051591444107 -1.7763568394002505e-15,9.000000000000004Z " /><path id="矩形" fill-rule="evenodd" style="fill:#FFE135" transform="translate(40 0)  rotate(0 19 19)" opacity="1" d="M38,38L38,9.000000000000002C38,6.6130515914440995 37.051788436711234,4.323866375353379 35.36396103067892,2.636038969321067C33.67613362464661,0.9482115632887549 31.38694840855589,-5.329070518200751e-15 28.999999999999993,-3.552713678800501e-15L0,0L38,38Z " /><path id="矩形 copy 2" fill-rule="evenodd" style="fill:#FB8606" transform="translate(39.99999999999953 -7.105427357601002e-15)  rotate(0 19.000000000000234 19.000000000002164)" opacity="1" d="M0,0L5.510910596163091e-16,29.000000000004327C0,31.386948408560222 0.9482115632887584,33.676133624650944 2.6360389693210706,35.36396103068326C4.323866375353383,37.05178843671557 6.613051591444102,38.00000000000433 8.999999999999998,38.00000000000433L38,38L0,0Z " /></g></g></g></svg>